<?xml version="1.0" encoding="utf-8"?>
<svg version="1.1" id="Capa_1" xmlns="http://www.w3.org/2000/svg" xmlns:xlink="http://www.w3.org/1999/xlink" x="0px" y="0px"
	 viewBox="0 0 100 38" style="enable-background:new 0 0 100 38;" xml:space="preserve">
<style type="text/css">
	.st0{clip-path:url(#SVGID_00000074433819172951818940000005669534328928516523_);}
	
		.st1{clip-path:url(#SVGID_00000008132382225146153000000014253391374657858226_);fill-rule:evenodd;clip-rule:evenodd;fill:#5192C0;}
	
		.st2{clip-path:url(#SVGID_00000008132382225146153000000014253391374657858226_);fill-rule:evenodd;clip-rule:evenodd;fill:#000100;}
	
		.st3{clip-path:url(#SVGID_00000008132382225146153000000014253391374657858226_);fill-rule:evenodd;clip-rule:evenodd;fill:#FFFFFF;}
	
		.st4{clip-path:url(#SVGID_00000008132382225146153000000014253391374657858226_);fill-rule:evenodd;clip-rule:evenodd;fill:#CE201F;}
	
		.st5{clip-path:url(#SVGID_00000008132382225146153000000014253391374657858226_);fill-rule:evenodd;clip-rule:evenodd;fill:#FEFEFE;}
	
		.st6{clip-path:url(#SVGID_00000008132382225146153000000014253391374657858226_);fill-rule:evenodd;clip-rule:evenodd;fill:#DDB651;}
	
		.st7{clip-path:url(#SVGID_00000008132382225146153000000014253391374657858226_);fill-rule:evenodd;clip-rule:evenodd;fill:#CE211F;}
	
		.st8{clip-path:url(#SVGID_00000008132382225146153000000014253391374657858226_);fill-rule:evenodd;clip-rule:evenodd;fill:#CC211F;}
	
		.st9{clip-path:url(#SVGID_00000008132382225146153000000014253391374657858226_);fill-rule:evenodd;clip-rule:evenodd;fill:#FCFCFC;}
	
		.st10{clip-path:url(#SVGID_00000008132382225146153000000014253391374657858226_);fill-rule:evenodd;clip-rule:evenodd;fill:#CD211F;}
	
		.st11{clip-path:url(#SVGID_00000008132382225146153000000014253391374657858226_);fill-rule:evenodd;clip-rule:evenodd;fill:#CE9493;}
	
		.st12{clip-path:url(#SVGID_00000008132382225146153000000014253391374657858226_);fill-rule:evenodd;clip-rule:evenodd;fill:#CBCACA;}
	
		.st13{clip-path:url(#SVGID_00000008132382225146153000000014253391374657858226_);fill-rule:evenodd;clip-rule:evenodd;fill:#CCCBCB;}
	
		.st14{clip-path:url(#SVGID_00000008132382225146153000000014253391374657858226_);fill-rule:evenodd;clip-rule:evenodd;fill:#CA2921;}
	
		.st15{clip-path:url(#SVGID_00000008132382225146153000000014253391374657858226_);fill-rule:evenodd;clip-rule:evenodd;fill:#FDFCFC;}
	
		.st16{clip-path:url(#SVGID_00000008132382225146153000000014253391374657858226_);fill-rule:evenodd;clip-rule:evenodd;fill:#FDF6F6;}
	
		.st17{clip-path:url(#SVGID_00000008132382225146153000000014253391374657858226_);fill-rule:evenodd;clip-rule:evenodd;fill:#EFEFEF;}
	
		.st18{clip-path:url(#SVGID_00000008132382225146153000000014253391374657858226_);fill-rule:evenodd;clip-rule:evenodd;fill:#EDCDCD;}
	
		.st19{clip-path:url(#SVGID_00000008132382225146153000000014253391374657858226_);fill-rule:evenodd;clip-rule:evenodd;fill:#D0B1AF;}
	
		.st20{clip-path:url(#SVGID_00000008132382225146153000000014253391374657858226_);fill-rule:evenodd;clip-rule:evenodd;fill:#D9B1AD;}
	
		.st21{clip-path:url(#SVGID_00000008132382225146153000000014253391374657858226_);fill-rule:evenodd;clip-rule:evenodd;fill:#EDB1B1;}
	
		.st22{clip-path:url(#SVGID_00000008132382225146153000000014253391374657858226_);fill-rule:evenodd;clip-rule:evenodd;fill:#B8AFAE;}
	
		.st23{clip-path:url(#SVGID_00000008132382225146153000000014253391374657858226_);fill-rule:evenodd;clip-rule:evenodd;fill:#B4AFAF;}
	
		.st24{clip-path:url(#SVGID_00000008132382225146153000000014253391374657858226_);fill-rule:evenodd;clip-rule:evenodd;fill:#E48080;}
	
		.st25{clip-path:url(#SVGID_00000008132382225146153000000014253391374657858226_);fill-rule:evenodd;clip-rule:evenodd;fill:#CA2520;}
	
		.st26{clip-path:url(#SVGID_00000008132382225146153000000014253391374657858226_);fill-rule:evenodd;clip-rule:evenodd;fill:#D4D3D3;}
	
		.st27{clip-path:url(#SVGID_00000008132382225146153000000014253391374657858226_);fill-rule:evenodd;clip-rule:evenodd;fill:#D4B1AF;}
	
		.st28{clip-path:url(#SVGID_00000008132382225146153000000014253391374657858226_);fill-rule:evenodd;clip-rule:evenodd;fill:#DED9D9;}
	
		.st29{clip-path:url(#SVGID_00000008132382225146153000000014253391374657858226_);fill-rule:evenodd;clip-rule:evenodd;fill:#D2D2D2;}
	
		.st30{clip-path:url(#SVGID_00000008132382225146153000000014253391374657858226_);fill-rule:evenodd;clip-rule:evenodd;fill:#2C2C2C;}
	
		.st31{clip-path:url(#SVGID_00000008132382225146153000000014253391374657858226_);fill-rule:evenodd;clip-rule:evenodd;fill:#DFB4B1;}
	
		.st32{clip-path:url(#SVGID_00000008132382225146153000000014253391374657858226_);fill-rule:evenodd;clip-rule:evenodd;fill:#D7B3B0;}
	
		.st33{clip-path:url(#SVGID_00000008132382225146153000000014253391374657858226_);fill-rule:evenodd;clip-rule:evenodd;fill:#D1AEAB;}
	
		.st34{clip-path:url(#SVGID_00000008132382225146153000000014253391374657858226_);fill-rule:evenodd;clip-rule:evenodd;fill:#F9E4E4;}
	
		.st35{clip-path:url(#SVGID_00000008132382225146153000000014253391374657858226_);fill-rule:evenodd;clip-rule:evenodd;fill:#E6D9D8;}
	
		.st36{clip-path:url(#SVGID_00000008132382225146153000000014253391374657858226_);fill-rule:evenodd;clip-rule:evenodd;fill:#B3B2B2;}
	
		.st37{clip-path:url(#SVGID_00000008132382225146153000000014253391374657858226_);fill-rule:evenodd;clip-rule:evenodd;fill:#A3A0A0;}
	
		.st38{clip-path:url(#SVGID_00000008132382225146153000000014253391374657858226_);fill-rule:evenodd;clip-rule:evenodd;fill:#A2A0A0;}
	
		.st39{clip-path:url(#SVGID_00000008132382225146153000000014253391374657858226_);fill-rule:evenodd;clip-rule:evenodd;fill:#D1C7C6;}
	
		.st40{clip-path:url(#SVGID_00000008132382225146153000000014253391374657858226_);fill-rule:evenodd;clip-rule:evenodd;fill:#E48081;}
	
		.st41{clip-path:url(#SVGID_00000008132382225146153000000014253391374657858226_);fill-rule:evenodd;clip-rule:evenodd;fill:#F4F0F0;}
	
		.st42{clip-path:url(#SVGID_00000008132382225146153000000014253391374657858226_);fill-rule:evenodd;clip-rule:evenodd;fill:#AAAAAA;}
	
		.st43{clip-path:url(#SVGID_00000008132382225146153000000014253391374657858226_);fill-rule:evenodd;clip-rule:evenodd;fill:#DCBB55;}
	
		.st44{clip-path:url(#SVGID_00000008132382225146153000000014253391374657858226_);fill-rule:evenodd;clip-rule:evenodd;fill:#A9A9A9;}
	
		.st45{clip-path:url(#SVGID_00000008132382225146153000000014253391374657858226_);fill-rule:evenodd;clip-rule:evenodd;fill:#D6B9B6;}
	
		.st46{clip-path:url(#SVGID_00000008132382225146153000000014253391374657858226_);fill-rule:evenodd;clip-rule:evenodd;fill:#D9B5B0;}
	
		.st47{clip-path:url(#SVGID_00000008132382225146153000000014253391374657858226_);fill-rule:evenodd;clip-rule:evenodd;fill:#AEAEAD;}
	
		.st48{clip-path:url(#SVGID_00000008132382225146153000000014253391374657858226_);fill-rule:evenodd;clip-rule:evenodd;fill:#D7AFAD;}
	
		.st49{clip-path:url(#SVGID_00000008132382225146153000000014253391374657858226_);fill-rule:evenodd;clip-rule:evenodd;fill:#DFDEDE;}
	
		.st50{clip-path:url(#SVGID_00000008132382225146153000000014253391374657858226_);fill-rule:evenodd;clip-rule:evenodd;fill:#E9E8E8;}
	
		.st51{clip-path:url(#SVGID_00000008132382225146153000000014253391374657858226_);fill-rule:evenodd;clip-rule:evenodd;fill:#D0A6A3;}
	
		.st52{clip-path:url(#SVGID_00000008132382225146153000000014253391374657858226_);fill-rule:evenodd;clip-rule:evenodd;fill:#FAE5E6;}
	
		.st53{clip-path:url(#SVGID_00000008132382225146153000000014253391374657858226_);fill-rule:evenodd;clip-rule:evenodd;fill:#B4ABAB;}
	
		.st54{clip-path:url(#SVGID_00000008132382225146153000000014253391374657858226_);fill-rule:evenodd;clip-rule:evenodd;fill:#E8E7E7;}
	
		.st55{clip-path:url(#SVGID_00000008132382225146153000000014253391374657858226_);fill-rule:evenodd;clip-rule:evenodd;fill:#E2B3AE;}
	
		.st56{clip-path:url(#SVGID_00000008132382225146153000000014253391374657858226_);fill-rule:evenodd;clip-rule:evenodd;fill:#FBF9F9;}
	
		.st57{clip-path:url(#SVGID_00000008132382225146153000000014253391374657858226_);fill-rule:evenodd;clip-rule:evenodd;fill:#E3B3B2;}
	
		.st58{clip-path:url(#SVGID_00000008132382225146153000000014253391374657858226_);fill-rule:evenodd;clip-rule:evenodd;fill:#CDCCCC;}
	
		.st59{clip-path:url(#SVGID_00000008132382225146153000000014253391374657858226_);fill-rule:evenodd;clip-rule:evenodd;fill:#8E8E8E;}
	
		.st60{clip-path:url(#SVGID_00000008132382225146153000000014253391374657858226_);fill-rule:evenodd;clip-rule:evenodd;fill:#C23322;}
	
		.st61{clip-path:url(#SVGID_00000008132382225146153000000014253391374657858226_);fill-rule:evenodd;clip-rule:evenodd;fill:#767575;}
	
		.st62{clip-path:url(#SVGID_00000008132382225146153000000014253391374657858226_);fill-rule:evenodd;clip-rule:evenodd;fill:#A5A5A5;}
	
		.st63{clip-path:url(#SVGID_00000008132382225146153000000014253391374657858226_);fill-rule:evenodd;clip-rule:evenodd;fill:#FDFBF6;}
	
		.st64{clip-path:url(#SVGID_00000008132382225146153000000014253391374657858226_);fill-rule:evenodd;clip-rule:evenodd;fill:#F7D9D8;}
	
		.st65{clip-path:url(#SVGID_00000008132382225146153000000014253391374657858226_);fill-rule:evenodd;clip-rule:evenodd;fill:#F5D6D4;}
	
		.st66{clip-path:url(#SVGID_00000008132382225146153000000014253391374657858226_);fill-rule:evenodd;clip-rule:evenodd;fill:#CA6752;}
	
		.st67{clip-path:url(#SVGID_00000008132382225146153000000014253391374657858226_);fill-rule:evenodd;clip-rule:evenodd;fill:#D8B1AE;}
	
		.st68{clip-path:url(#SVGID_00000008132382225146153000000014253391374657858226_);fill-rule:evenodd;clip-rule:evenodd;fill:#D9AFAB;}
	
		.st69{clip-path:url(#SVGID_00000008132382225146153000000014253391374657858226_);fill-rule:evenodd;clip-rule:evenodd;fill:#FAF7F7;}
	
		.st70{clip-path:url(#SVGID_00000008132382225146153000000014253391374657858226_);fill-rule:evenodd;clip-rule:evenodd;fill:#D4A8A4;}
	
		.st71{clip-path:url(#SVGID_00000008132382225146153000000014253391374657858226_);fill-rule:evenodd;clip-rule:evenodd;fill:#777676;}
	
		.st72{clip-path:url(#SVGID_00000008132382225146153000000014253391374657858226_);fill-rule:evenodd;clip-rule:evenodd;fill:#D3ABA8;}
	
		.st73{clip-path:url(#SVGID_00000008132382225146153000000014253391374657858226_);fill-rule:evenodd;clip-rule:evenodd;fill:#DAAEAC;}
	
		.st74{clip-path:url(#SVGID_00000008132382225146153000000014253391374657858226_);fill-rule:evenodd;clip-rule:evenodd;fill:#E0C5C4;}
	
		.st75{clip-path:url(#SVGID_00000008132382225146153000000014253391374657858226_);fill-rule:evenodd;clip-rule:evenodd;fill:#E0B6B2;}
	
		.st76{clip-path:url(#SVGID_00000008132382225146153000000014253391374657858226_);fill-rule:evenodd;clip-rule:evenodd;fill:#E3B0AB;}
	
		.st77{clip-path:url(#SVGID_00000008132382225146153000000014253391374657858226_);fill-rule:evenodd;clip-rule:evenodd;fill:#E0B3B0;}
	
		.st78{clip-path:url(#SVGID_00000008132382225146153000000014253391374657858226_);fill-rule:evenodd;clip-rule:evenodd;fill:#010101;}
	
		.st79{clip-path:url(#SVGID_00000008132382225146153000000014253391374657858226_);fill-rule:evenodd;clip-rule:evenodd;fill:#010202;}
	
		.st80{clip-path:url(#SVGID_00000008132382225146153000000014253391374657858226_);fill-rule:evenodd;clip-rule:evenodd;fill:#020303;}
	
		.st81{clip-path:url(#SVGID_00000008132382225146153000000014253391374657858226_);fill-rule:evenodd;clip-rule:evenodd;fill:#DAB556;}
	
		.st82{clip-path:url(#SVGID_00000008132382225146153000000014253391374657858226_);fill-rule:evenodd;clip-rule:evenodd;fill:#FCFCFD;}
	
		.st83{clip-path:url(#SVGID_00000008132382225146153000000014253391374657858226_);fill-rule:evenodd;clip-rule:evenodd;fill:#09090A;}
	
		.st84{clip-path:url(#SVGID_00000008132382225146153000000014253391374657858226_);fill-rule:evenodd;clip-rule:evenodd;fill:#EA9D9C;}
	
		.st85{clip-path:url(#SVGID_00000008132382225146153000000014253391374657858226_);fill-rule:evenodd;clip-rule:evenodd;fill:#EA9D9D;}
	
		.st86{clip-path:url(#SVGID_00000008132382225146153000000014253391374657858226_);fill-rule:evenodd;clip-rule:evenodd;fill:#010201;}
	
		.st87{clip-path:url(#SVGID_00000008132382225146153000000014253391374657858226_);fill-rule:evenodd;clip-rule:evenodd;fill:#020202;}
	
		.st88{clip-path:url(#SVGID_00000008132382225146153000000014253391374657858226_);fill-rule:evenodd;clip-rule:evenodd;fill:#DCB551;}
	
		.st89{clip-path:url(#SVGID_00000008132382225146153000000014253391374657858226_);fill-rule:evenodd;clip-rule:evenodd;fill:#DCB853;}
	
		.st90{clip-path:url(#SVGID_00000008132382225146153000000014253391374657858226_);fill-rule:evenodd;clip-rule:evenodd;fill:#5D5545;}
	
		.st91{clip-path:url(#SVGID_00000008132382225146153000000014253391374657858226_);fill-rule:evenodd;clip-rule:evenodd;fill:#FFFEFE;}
	
		.st92{clip-path:url(#SVGID_00000008132382225146153000000014253391374657858226_);fill-rule:evenodd;clip-rule:evenodd;fill:#D98374;}
	
		.st93{clip-path:url(#SVGID_00000008132382225146153000000014253391374657858226_);fill-rule:evenodd;clip-rule:evenodd;fill:#F7EED8;}
	
		.st94{clip-path:url(#SVGID_00000008132382225146153000000014253391374657858226_);fill-rule:evenodd;clip-rule:evenodd;fill:#000101;}
	
		.st95{clip-path:url(#SVGID_00000008132382225146153000000014253391374657858226_);fill-rule:evenodd;clip-rule:evenodd;fill:#EBEAEB;}
	
		.st96{clip-path:url(#SVGID_00000008132382225146153000000014253391374657858226_);fill-rule:evenodd;clip-rule:evenodd;fill:#CBCACB;}
	
		.st97{clip-path:url(#SVGID_00000008132382225146153000000014253391374657858226_);fill-rule:evenodd;clip-rule:evenodd;fill:#D9D9D9;}
	
		.st98{clip-path:url(#SVGID_00000008132382225146153000000014253391374657858226_);fill-rule:evenodd;clip-rule:evenodd;fill:#DBD9D9;}
</style>
<g>
	<g>
		<defs>
			<rect id="SVGID_1_" x="0" y="0" width="100" height="38"/>
		</defs>
		<clipPath id="SVGID_00000030480053651332973850000014034759071249735838_">
			<use xlink:href="#SVGID_1_"  style="overflow:visible;"/>
		</clipPath>
		<g style="clip-path:url(#SVGID_00000030480053651332973850000014034759071249735838_);">
			<defs>
				<rect id="SVGID_00000063615533847683351990000004939912020517391038_" x="0" y="0" width="100" height="38"/>
			</defs>
			<clipPath id="SVGID_00000179631261461428137790000005002370660699306893_">
				<use xlink:href="#SVGID_00000063615533847683351990000004939912020517391038_"  style="overflow:visible;"/>
			</clipPath>
			
				<path style="clip-path:url(#SVGID_00000179631261461428137790000005002370660699306893_);fill-rule:evenodd;clip-rule:evenodd;fill:#5192C0;" d="
				M82.8,4.6C83.1,4,83.5,3.5,83.9,3c0.1-0.2,0.3-0.3,0.4-0.5C84.8,2,85.5,2,86.1,1.8c1-0.3,1.9,0,2.8,0.2c1.9,0.5,3.7,1.4,5.2,2.7
				c0.4,0.3,0.9,0.6,1.3,1c0.5,0.5,1,1,1.5,1.6c0.2,0.3,0.4,0.5,0.6,0.8c0.6,0.8,0.8,1.8,0.9,2.8c0,0.5-0.2,1.1-0.3,1.6
				c-0.2,0.7-0.6,1.3-1,1.9c-0.2,0.2-0.3,0.4-0.6,0.6c-0.1,0.1-0.2,0.2-0.3,0.3c-1.1,1.6-2.1,3.3-3.3,4.9c-0.4,0.5-0.9,0.9-1.4,1.3
				c-0.1,0.1-0.2,0.1-0.2,0.1c-0.5,0.1-0.5,0.1-0.6,0.6c-0.2,1.8-1,3.2-2.4,4.4c-0.1,0.1-0.2,0.2-0.4,0.3c-0.1,0.1-0.1,0.2-0.1,0.3
				c0.1,0.8-0.1,1.5-0.5,2.1c-0.9,1.4-1.9,2.8-2.9,4.2c-0.3,0.4-0.6,0.9-0.9,1.3c-0.3,0.4-0.8,0.7-1.3,0.9c-0.4,0.1-0.9,0.2-1.3,0.3
				c-0.9,0.1-1.8-0.1-2.6-0.6c-0.4-0.2-0.8-0.5-1.1-0.9c-0.3,0.3-0.5,0.7-0.8,1.1c-0.4,0.5-0.8,0.8-1.5,1c-1.1,0.3-2,0-2.8-0.7
				c-0.3-0.3-0.5-0.6-0.7-1c-0.3-0.9-0.2-1.9,0.1-2.8c0.1-0.4-0.1-0.8-0.2-1.2c0-0.1-0.1-0.1-0.2-0.1c-0.7,0.1-1.3,0-2,0
				c-1.3-0.1-2.6-0.2-3.9-0.3c-1.6-0.1-3.2-0.3-4.8-0.4c-1.3-0.1-2.5-0.2-3.8-0.3c-1.6-0.1-3.2-0.2-4.7-0.4
				c-1.3-0.1-2.5-0.2-3.8-0.3c-1.6-0.1-3.2-0.3-4.8-0.4c-1.3-0.1-2.5-0.2-3.8-0.3c-1.6-0.1-3.2-0.2-4.8-0.4
				c-1.3-0.1-2.5-0.2-3.8-0.3c-1-0.1-1.9-0.1-2.9-0.2c-0.2,0-0.3-0.1-0.4-0.3c-0.7-2.2-1.4-4.3-2.2-6.5c-0.1-0.2-0.1-0.3-0.3-0.3
				c-3-0.5-6.1-1-9.1-1.5c-2.6-0.4-5.2-0.9-7.8-1.3c-2.2-0.4-4.4-0.7-6.6-1.1c-0.5-0.1-0.5-0.1-0.3-0.5C3.2,11.5,5,7.1,6.8,2.6
				c0.1-0.3,0.2-0.4,0.5-0.4c2.8,0,5.6,0,8.4-0.1c2.3,0,4.5,0,6.8-0.1c2.2-0.1,4.4,0,6.7-0.1C31.5,2,33.8,2.1,36,2
				C38.3,2,40.5,2,42.7,2c2.2-0.1,4.5,0,6.7-0.1c2.2-0.1,4.5,0,6.7-0.1c2.3-0.1,4.5,0,6.8-0.1c2.2-0.1,4.4,0,6.7-0.1
				c2.3-0.1,4.5,0,6.8-0.1c1.7,0,3.5,0,5.2-0.1c0.4,0,0.6,0.1,0.7,0.6C82.4,2.9,82.6,3.7,82.8,4.6"/>
			
				<path style="clip-path:url(#SVGID_00000179631261461428137790000005002370660699306893_);fill-rule:evenodd;clip-rule:evenodd;fill:#000100;" d="
				M45.1,25.6c-1.3,1-2.8,1.2-4.3,0.8c-0.5-0.1-1-0.2-1.5-0.1c-0.8,0.2-1.8,0.2-2.6,0c-0.1,0-0.3,0-0.4,0c-0.9,0.2-1.7,0.2-2.6-0.1
				c-0.1,0-0.2,0-0.2,0c-0.8,0.2-1.6,0.2-2.4,0.1c-0.8-0.1-1.2-0.7-1.2-1.5c0-2.8,0-5.5,0-8.3c0-0.5,0-0.5-0.5-0.5
				c-1.2,0-2.3,0-3.5-0.1c-1.3-0.1-2.6-0.1-3.8-0.1c-1.3-0.1-2.7-0.1-4-0.1c-1.4,0-2.7-0.1-4.1-0.1c-1.2-0.1-2.3-0.1-3.5-0.1
				c-0.7,0-1.3,0-2,0c-1.1,0-2.2-0.1-3.4-0.1c-1.1-0.1-1.4-0.9-1.2-1.8c0-0.3,0.2-0.6,0.4-0.8c0.1-0.1,0.1-0.2,0.1-0.3
				c1-2.7,2-5.5,3-8.2c0.3-0.8,0.7-1,1.4-1c2.2,0,4.3-0.1,6.5,0c1.6,0.1,2.5,1,2.5,2.6c0,0.7-0.3,1.3-0.5,1.9c0,0.1-0.1,0.2-0.1,0.4
				c0.5-0.7,1-1.4,1.6-2.1c0.6-0.8,1.2-1.5,1.7-2.3c0.3-0.4,0.8-0.5,1.2-0.5c1.1,0,2.3,0,3.4,0c1,0,1.5,0.5,1.5,1.5
				c0,1.3,0.1,2.7,0.2,4c0.2-0.6,0.4-1.2,0.7-1.8c0.3-0.9,0.7-1.8,1-2.7c0.3-0.7,0.8-1,1.5-1c2.4,0,4.8,0,7.2,0
				c0.6,0,1.2,0.2,1.7,0.7c0.1,0.1,0.2,0.1,0.3,0c0.3-0.5,0.8-0.6,1.3-0.6c2.4,0,4.8,0,7.2,0c0.6,0,1.2,0.2,1.7,0.6
				c0.1,0.1,0.2,0.1,0.3,0c0.3-0.5,0.8-0.6,1.3-0.6c2.5,0,5,0,7.5,0c0.6,0,1.3,0,1.9,0c2.4-0.1,4.7,0,7.1,0c0.8,0,1.6,0.3,2.1,1.1
				c0.3,0.5,0.4,1,0.3,1.6c-0.1,0.6-0.4,1.2-0.5,1.8c0.6-0.7,1.1-1.5,1.7-2.2c0.4-0.5,0.8-1,1.2-1.6c0.3-0.5,0.8-0.6,1.3-0.7
				c1.2,0,2.4,0,3.6,0c0.9,0,1.4,0.6,1.5,1.5c0.1,2.8,0.1,5.6,0.3,8.4c0,1,0,2,0.1,3c0.5-0.1,0.9-0.4,1.4-0.4c0.5,0,0.8-0.2,0.9-0.8
				c0.1-0.4,0.1-0.7-0.2-1c-0.3-0.4-0.3-0.9-0.2-1.3c0.1-0.3,0.2-0.6,0.4-0.9c0.3-0.4,0.5-0.8,0.7-1.2c0.5-1,1.1-2,1.6-3
				c0.3-0.5,0.5-1,0.6-1.6c0.1-0.3,0.3-0.6,0.5-0.9c0.2-0.4,0.5-0.7,0.8-1.1c0.1-0.1,0.2-0.2,0.3-0.3c0.6-0.2,1.2-0.4,1.9-0.3
				c1.1,0.1,2.1,0.5,3.1,1c0.9,0.4,1.8,0.9,2.5,1.6c0.4,0.4,0.9,0.7,1.3,1c0.6,0.5,1.1,1.2,1.6,1.8c0.5,0.6,0.7,1.2,0.9,1.9
				c0.1,0.3,0.1,0.7,0,1c-0.2,0.5-0.4,1.1-0.7,1.6c-0.5,0.8-1.2,1.3-1.7,2.1c-0.4,0.8-1,1.5-1.5,2.2c-0.4,0.7-0.9,1.4-1.4,2.1
				c-0.4,0.5-0.9,0.8-1.5,0.9c-0.8,0-0.7,0-0.8,0.8c-0.1,0.7-0.1,1.4-0.4,2c-0.6,1.3-1.5,2.4-2.7,3.1c-0.3,0.2-0.1,0.3-0.1,0.5
				c0.4,0.7,0.3,1.3-0.2,2c-0.8,1.2-1.7,2.4-2.5,3.6c-0.3,0.5-0.7,0.9-1,1.4c-0.1,0.2-0.3,0.3-0.5,0.4c-1.3,0.5-2.8,0.3-3.7-1
				c-0.2-0.3-0.6-0.5-0.8-0.8c-0.1-0.1-0.2,0-0.2,0c-0.6,0.1-0.8,0.6-1.1,1c-0.3,0.4-0.6,0.7-0.9,1.2c-0.3,0.5-0.7,0.6-1.2,0.5
				c-0.6-0.1-1.1-0.4-1.2-1c-0.1-0.6,0.1-1.2,0.2-1.8c0-0.1,0-0.2,0.1-0.3c0.1-0.4,0.2-0.7-0.1-1.1c-0.3-0.4-0.2-1,0-1.4
				c0.2-0.5,0.2-1,0.4-1.4c0-0.2-0.1-0.2-0.2-0.2c-0.6-0.1-1-0.5-1.1-1.1c-0.1-0.3-0.5-0.5-0.7-0.4c-1.3,0.5-2.6,0.5-3.9,0
				c-0.1,0-0.2-0.1-0.4,0c-0.2,0.1-0.5,0.2-0.8,0.2c-0.8,0-1.6,0-2.4,0c-0.8,0-1.5,0-2.3,0c-0.4,0-0.7,0-1-0.3c-0.1-0.1-0.2,0-0.2,0
				c-1.3,0.5-2.6,0.5-3.9,0.1c-0.2-0.1-0.5-0.2-0.7-0.3c-0.2-0.2-0.3-0.2-0.6,0c-1.2,0.7-2.4,0.8-3.7,0.5c-0.5-0.1-1.1-0.3-1.5-0.7
				c-0.1-0.1-0.2-0.1-0.3,0.1c-0.3,0.5-0.7,0.6-1.3,0.6c-0.6,0-1.2,0-1.8,0C45.9,26.4,45.4,26.2,45.1,25.6"/>
			
				<path style="clip-path:url(#SVGID_00000179631261461428137790000005002370660699306893_);fill-rule:evenodd;clip-rule:evenodd;fill:#FFFFFF;" d="
				M5.3,13.6c0.5-1.5,1.1-3,1.6-4.5c0.5-1.5,1.1-3,1.6-4.5c0.1-0.2,0.2-0.3,0.4-0.3c2,0,4.1,0,6.1,0c1.1,0,1.6,0.7,1.3,1.8
				c-0.2,0.6-0.4,1.1-0.7,1.7c-0.3,0.7-0.8,1.1-1.7,1.2c0.1,0,0.2,0.1,0.2,0.1c0.5,0.2,0.7,0.6,0.6,1.2c-0.2,0.6-0.4,1.2-0.7,1.8
				c-0.4,0.9-1.1,1.4-2.2,1.4C9.7,13.6,7.5,13.6,5.3,13.6"/>
			
				<path style="clip-path:url(#SVGID_00000179631261461428137790000005002370660699306893_);fill-rule:evenodd;clip-rule:evenodd;fill:#CE201F;" d="
				M35.9,16c0-0.1,0-0.1,0-0.2c0.1-0.2,0-0.4,0.1-0.6c0-0.1,0-0.3,0.2-0.3c0.9,0.1,1.8,0,2.8,0.1c0,0.1,0,0.2,0,0.3
				c0,3.1,0,6.2,0,9.2c0,0.4,0,0.4-0.4,0.4c-0.5,0-1,0-1.5,0C37,24.9,37,24.8,37,24.6c0-1.5,0-3,0-4.5c0-0.2,0-0.4,0-0.7
				c0,0,0-0.1,0-0.1c0,0,0,0,0,0c-0.1,0.1-0.1,0.3-0.2,0.5c-0.3,1.7-0.7,3.4-1,5c0,0,0,0,0,0.1c0,0.2-0.2,0.1-0.3,0.1
				c-0.4,0-0.8,0-1.2,0c-0.2-0.4-0.2-0.8-0.3-1.3c-0.3-1.4-0.7-2.9-1-4.3c0,0,0-0.1-0.1-0.1c0,0.1-0.1,0.2-0.1,0.2
				c0,1.7,0,3.4,0,5.1c0,0.3-0.1,0.4-0.3,0.3c-0.4,0-0.7,0-1.1,0c-0.2,0-0.3-0.1-0.3-0.3c0-0.9,0-1.7,0-2.6c0-2.3,0-4.7,0-7
				c0-0.1,0-0.2,0-0.4c0.9,0,1.9,0.1,2.8,0.1c0.2,0.4,0.2,0.8,0.3,1.2c0.1,0.6,0.2,1.1,0.3,1.7c0.1,0.7,0.2,1.4,0.5,2.1
				c0.2-0.4,0.2-0.9,0.3-1.3c0.1-0.8,0.3-1.7,0.4-2.5C35.8,16.1,35.8,16.1,35.9,16"/>
			
				<path style="clip-path:url(#SVGID_00000179631261461428137790000005002370660699306893_);fill-rule:evenodd;clip-rule:evenodd;fill:#FFFFFF;" d="
				M35.5,13.6c-0.9,0-1.8,0-2.7,0c-0.2,0-0.2-0.1-0.2-0.2c-0.2-1.1-0.4-2.2-0.6-3.3c0-0.2-0.1-0.3-0.4-0.3c-0.7,0-0.7,0-1,0.7
				c-0.3,1-0.7,1.9-1,2.9c0,0.1-0.1,0.2-0.3,0.2c-1,0-2,0-3,0c0.5-1.3,0.9-2.6,1.4-3.8c0.6-1.7,1.2-3.4,1.8-5.1
				c0.1-0.2,0.2-0.3,0.4-0.3c2.3,0,4.7,0,7,0c0.9,0,1.4,0.6,1.1,1.4c-0.3,0.9-0.6,1.7-1,2.6c-0.4,1-1.2,1.4-2.2,1.4
				c-0.3,0-0.3,0.1-0.2,0.3C35,11.3,35.2,12.4,35.5,13.6"/>
			
				<path style="clip-path:url(#SVGID_00000179631261461428137790000005002370660699306893_);fill-rule:evenodd;clip-rule:evenodd;fill:#FFFFFF;" d="
				M45.9,13.6c-0.9,0-1.8,0-2.7,0c-0.1,0-0.2,0-0.2-0.2c-0.2-1.1-0.4-2.2-0.6-3.3c0-0.3-0.1-0.3-0.4-0.3c-0.7,0-0.7,0-0.9,0.7
				c-0.3,1-0.7,1.9-1,2.9c0,0.1-0.1,0.2-0.3,0.2c-1,0-1.9,0-3,0c0.3-0.8,0.6-1.6,0.9-2.4c0.8-2.2,1.6-4.3,2.4-6.5
				c0.1-0.2,0.2-0.3,0.4-0.3c2.3,0,4.6,0,7,0c0.9,0,1.4,0.6,1.1,1.5c-0.3,0.9-0.6,1.7-0.9,2.6c-0.4,1-1.2,1.4-2.2,1.4
				c-0.3,0-0.3,0.1-0.3,0.4C45.4,11.3,45.7,12.4,45.9,13.6"/>
			
				<path style="clip-path:url(#SVGID_00000179631261461428137790000005002370660699306893_);fill-rule:evenodd;clip-rule:evenodd;fill:#FFFFFF;" d="
				M56.6,13.6c0.3-0.9,0.7-1.8,1-2.7c0.7-2.1,1.5-4.1,2.2-6.2c0.1-0.2,0.2-0.3,0.4-0.3c2.3,0,4.6,0,7,0c0.9,0,1.4,0.6,1.1,1.5
				c-0.3,0.9-0.6,1.7-0.9,2.5c-0.4,1-1.1,1.4-2.2,1.4c-0.3,0-0.4,0.1-0.3,0.4c0.3,1.1,0.5,2.3,0.8,3.4c-0.9,0-1.8,0-2.7,0
				c-0.1,0-0.1-0.1-0.2-0.2c-0.2-1.1-0.4-2.2-0.6-3.3c0-0.3-0.1-0.3-0.4-0.3c-0.7,0-0.7,0-0.9,0.7c-0.3,1-0.7,1.9-1,2.9
				c-0.1,0.1-0.1,0.2-0.3,0.2C58.6,13.6,57.6,13.6,56.6,13.6"/>
			
				<path style="clip-path:url(#SVGID_00000179631261461428137790000005002370660699306893_);fill-rule:evenodd;clip-rule:evenodd;fill:#FFFFFF;" d="
				M14.4,13.6c2-2.6,4-5.2,6-7.8C20.7,5.4,21,5,21.3,4.6c0.1-0.1,0.2-0.2,0.3-0.2c1.1,0,2.3,0,3.4,0c0.2,0,0.2,0,0.2,0.2
				c0.1,2.9,0.2,5.8,0.3,8.6c0,0.3-0.1,0.3-0.3,0.3c-1.1,0-2.1,0-3.2,0c-0.2,0-0.3,0-0.3-0.2c0-0.6,0-1.2-0.1-1.8
				c0-0.2,0-0.2-0.2-0.2c-0.9,0-1.8,0-2.6,0c-0.2,0-0.2,0.1-0.3,0.2c-0.5,0.6-0.9,1.3-1.4,1.9c-0.1,0.1-0.1,0.2-0.3,0.2
				C16.1,13.6,15.3,13.6,14.4,13.6"/>
			
				<path style="clip-path:url(#SVGID_00000179631261461428137790000005002370660699306893_);fill-rule:evenodd;clip-rule:evenodd;fill:#FFFFFF;" d="
				M66.2,13.6c0.7-0.9,1.3-1.7,1.9-2.5C69.7,9,71.4,6.9,73,4.7c0.1-0.2,0.3-0.3,0.6-0.3c1.1,0,2.2,0,3.3,0c0.2,0,0.2,0,0.3,0.2
				c0.1,2.9,0.2,5.7,0.3,8.6c0,0.3,0,0.3-0.3,0.3c-1,0-2.1,0-3.1,0c-0.3,0-0.3-0.1-0.3-0.3c0-0.6,0-1.1,0-1.7c0-0.2,0-0.3-0.2-0.2
				c-0.9,0-1.8,0-2.6,0c-0.2,0-0.2,0.1-0.3,0.2c-0.5,0.6-0.9,1.3-1.4,1.9c-0.1,0.1-0.1,0.2-0.2,0.2C67.9,13.6,67.1,13.6,66.2,13.6"
				/>
			
				<path style="clip-path:url(#SVGID_00000179631261461428137790000005002370660699306893_);fill-rule:evenodd;clip-rule:evenodd;fill:#FFFFFF;" d="
				M55.4,8.5c-0.1,0.4-0.3,0.7-0.4,1.1c-0.1,0.2-0.2,0.1-0.3,0.1c-0.9,0-1.8,0-2.7,0c-0.2,0-0.3,0.1-0.3,0.2
				c-0.2,0.6-0.4,1.3-0.7,1.9c-0.1,0.2,0,0.3,0.2,0.3c1.4,0,2.8,0,4.1,0h0.4c-0.2,0.5-0.3,0.9-0.5,1.4c0,0.1-0.1,0.1-0.3,0.1
				c-2.6,0-5.1,0-7.7,0c0.4-1,0.7-1.9,1-2.9c0.7-2,1.5-4.1,2.2-6.1c0.1-0.2,0.1-0.2,0.3-0.2c2.5,0,5.1,0,7.6,0c0,0,0.1,0,0.1,0
				c-0.2,0.5-0.4,0.9-0.5,1.4c-0.1,0.2-0.2,0.1-0.3,0.1c-1.4,0-2.8,0-4.2,0c-0.3,0-0.4,0.1-0.4,0.3c-0.2,0.6-0.4,1.3-0.6,1.8
				c-0.2,0.4-0.1,0.4,0.2,0.4C53.5,8.5,54.4,8.5,55.4,8.5"/>
			
				<path style="clip-path:url(#SVGID_00000179631261461428137790000005002370660699306893_);fill-rule:evenodd;clip-rule:evenodd;fill:#FFFFFF;" d="
				M83.4,13.8c-0.4-0.4-0.8-0.5-1.3-0.7c-0.2-0.1-0.3-0.2-0.1-0.4c1-1.9,2-3.7,3-5.6c0,0,0-0.1,0.1-0.1c0.2,0.8,0.7,1.3,1.1,1.9
				c0.9,1.1,2,1.9,3.2,2.7c0.8,0.6,1.7,0.9,2.6,1.3c0,0.2-0.1,0.1-0.2,0.2c-0.1,0-0.2,0.1-0.3,0.2c-1,1.7-1.9,3.3-2.9,5
				c-0.1,0.2-0.1,0.3,0.2,0.3c0.3,0,0.6-0.1,0.8-0.4c1-1.5,2-3,3-4.5c0.1-0.1,0.1-0.2,0.2-0.3c0.1-0.1,0.1-0.4,0.4-0.3
				c0.3,0.1,0.6,0,1,0c-0.3,0.5-0.6,0.9-0.9,1.3c-0.9,1.3-1.8,2.6-2.6,3.9c-0.1,0.2-0.3,0.3-0.6,0.4c-0.5,0.1-1,0-1.5,0
				c-0.2,0.1-0.3,0-0.4-0.1c-0.2-0.1-0.3-0.1-0.5-0.2c-0.4-0.2-0.8-0.4-1.1-0.7c-0.5-0.4-1-0.9-1.4-1.5c-0.1-0.2-0.2-0.3-0.3-0.5
				c-0.3-0.5-0.5-1-0.8-1.4C83.8,14.3,83.6,14.1,83.4,13.8"/>
			
				<path style="clip-path:url(#SVGID_00000179631261461428137790000005002370660699306893_);fill-rule:evenodd;clip-rule:evenodd;fill:#CE201F;" d="
				M43.9,24.8c-0.1,0-0.2,0.2-0.3,0.1c-0.9,0.3-1.8,0.4-2.7,0.2c-0.2-0.1-0.5-0.2-0.7-0.3l0,0c-0.5-0.3-0.7-0.8-0.7-1.4
				c0-2.2,0-4.4,0-6.6c0-0.1,0-0.3,0-0.4c0-0.2,0.1-0.4,0.2-0.6c0.2-0.3,0.5-0.6,0.9-0.7c1,0,1.9,0.1,2.9,0.1c0.2,0,0.4,0.2,0.6,0.4
				c0.4,0.5,0.4,1.1,0.4,1.6c0,2,0,3.9,0,5.9c0,0.4,0,0.7-0.2,1.1C44.3,24.4,44.1,24.6,43.9,24.8"/>
			
				<path style="clip-path:url(#SVGID_00000179631261461428137790000005002370660699306893_);fill-rule:evenodd;clip-rule:evenodd;fill:#CE201F;" d="
				M64.2,15.9c0.7,0,1.4,0,2,0.1c0.1,0.1,0,0.2,0,0.3c0,2.8,0,5.6,0,8.4c0,0.3,0,0.4-0.4,0.3c-0.6,0-1.1,0-1.7,0
				c-0.1-0.1-0.1-0.3-0.1-0.4c0-1.4,0-2.7,0-4.1c0-0.1,0.1-0.3-0.1-0.4c-0.6,0-0.6,0-0.6,0.6c0,1.3,0,2.6,0,4c0,0.2,0,0.3-0.3,0.3
				c-0.6,0-1.2,0-1.8,0c0-0.1,0-0.2,0-0.3c0-2.9,0-5.8,0-8.7c0-0.1,0-0.2,0-0.3c0.7,0,1.4,0,2.1,0.1c0.1,0.5,0,0.9,0,1.4
				c0,0.5,0,0.9,0,1.4c0,0.3,0,0.3,0.4,0.3c0.1,0,0.2,0,0.2,0c0.2-0.1,0.1-0.2,0.1-0.3c0-0.8,0-1.6,0-2.4
				C64.1,16.2,64.1,16.1,64.2,15.9"/>
			
				<path style="clip-path:url(#SVGID_00000179631261461428137790000005002370660699306893_);fill-rule:evenodd;clip-rule:evenodd;fill:#CE201F;" d="
				M50.8,15.5c1.2,0,2.4,0.1,3.6,0.1c0.1,0,0.3,0,0.4,0c0.3,0.3,0.4,0.7,0.4,1.1c0,2.2,0,4.5,0,6.7c0,0.1,0,0.2,0,0.3
				c0,0.5-0.3,0.7-0.6,1c-0.1,0-0.2,0.2-0.3,0.1c-0.9,0.3-1.8,0.4-2.7,0.2c-0.2-0.1-0.5-0.2-0.7-0.3l0,0c-0.5-0.3-0.7-0.8-0.7-1.4
				c0-2.2,0-4.4,0-6.6c0-0.1,0-0.3,0-0.4c0-0.2,0.1-0.4,0.2-0.6C50.5,15.7,50.6,15.6,50.8,15.5"/>
			
				<path style="clip-path:url(#SVGID_00000179631261461428137790000005002370660699306893_);fill-rule:evenodd;clip-rule:evenodd;fill:#CE201F;" d="
				M71.1,24.8c-0.1,0-0.2,0.2-0.3,0.1c-0.9,0.3-1.8,0.4-2.7,0.2c-0.2-0.1-0.5-0.2-0.7-0.3l0,0c-0.5-0.3-0.7-0.8-0.7-1.4
				c0-2.2,0-4.4,0-6.6c0-0.2,0-0.3,0.1-0.5c0-0.3,0.1-0.3,0.4-0.3c1.5,0.1,2.9,0.1,4.4,0.2c0.2,0.3,0.2,0.6,0.2,1c0,1.9,0,3.9,0,5.8
				C71.8,23.7,71.6,24.3,71.1,24.8"/>
			
				<path style="clip-path:url(#SVGID_00000179631261461428137790000005002370660699306893_);fill-rule:evenodd;clip-rule:evenodd;fill:#FFFFFF;" d="
				M75.7,25.4c0.1-0.4,0-0.9,0.1-1.3c0.1-0.3,0.2-0.6,0.4-0.9c0.2-0.2,0.2-0.5,0.4-0.7c0.3-0.1,0.6-0.2,0.8-0.3c0,0,0.1,0,0.1,0
				c0.8,0.3,1.4,0,2.1-0.4c1.2-0.8,2.1-2,2.9-3.2c0.1-0.1,0.1-0.2,0.2-0.3c0.3-0.5,0.6-0.9,0.9-1.4c0.1-0.2,0.3-0.4,0.4-0.6
				c0.1-0.1,0.1-0.2,0.3-0.2c0.1,0,0.2,0.2,0.2,0.3c0,0.2-0.1,0.4-0.2,0.6c-0.1,0.2-0.3,0.4-0.4,0.7c-0.7,0.9-1.3,1.7-2,2.6
				c-0.7,0.9-1.4,1.7-2.3,2.5c-0.2,0.2-0.2,0.2,0.1,0.3c0.4,0.1,0.6,0.4,0.8,0.7c0.2,0.2,0.2,0.2,0.3,0c0.8-1.9,1.8-3.7,2.9-5.4
				c0.1-0.2,0.3-0.4,0.4-0.6c0.1-0.2,0.2-0.3,0.3-0.4c0.1-0.1,0.2-0.2,0.3-0.2c0.2,0.2,0.2,0.4,0,0.6c-0.6,0.8-1.1,1.7-1.6,2.5
				c-0.3,0.5-0.5,0.9-0.7,1.4c-0.1,0.2-0.2,0.5-0.2,0.7c-0.2,0.6-0.3,1.2-0.4,1.8c-0.1,0.6,0,1.2,0.3,1.7c0,0.1,0.1,0.2,0.1,0.3
				c0.6,1.1,1.6,1.5,2.8,1.4c-0.2,0.3-0.4,0.5-0.5,0.8c-1,1.4-1.9,2.7-2.9,4.1c-0.3,0.4-0.9,0.6-1.4,0.4c-0.4-0.1-0.7-0.3-0.9-0.6
				c-0.3-0.4-0.7-0.9-1-1.3c-0.1-0.1-0.1-0.2,0.1-0.3c1.3-0.5,2-1.5,2.4-2.7c0.2-0.8,0.3-1.6,0.1-2.3c-0.2-0.8-0.6-1.4-1.3-1.8
				c0,0-0.1,0-0.1,0c0,0,0,0-0.1,0c0,0,0,0.1,0,0.1c1,0.9,1.1,2,1,3.3c-0.2,1.1-0.7,2-1.6,2.8c-0.4,0.3-0.9,0.5-1.4,0.6
				c-0.1,0.1-0.3,0-0.4,0c-0.4-0.1-0.7-0.2-1-0.4c-0.1-0.1-0.3-0.3-0.3-0.5c0-0.1,0-0.1-0.1-0.2c0-0.1-0.1-0.2,0-0.2
				c0.1,0,0.2,0.1,0.3,0.2c0.6,0.7,1.5,0.8,2.2,0.2c1.3-1.1,1.9-2.5,1.6-4.2c0-0.3-0.2-0.7-0.4-0.9c-0.6-0.7-1.3-0.8-2.1-0.3
				c-0.7,0.5-1.1,1.2-1.5,1.9c-0.1,0.2-0.2,0.4-0.3,0.5c-0.1,0-0.1-0.1-0.1-0.2c0.1-0.8,0.5-1.4,1-2c0.1-0.1,0.1-0.2,0.2-0.2
				c-0.2,0.2-0.5,0.5-0.7,0.8C75.9,25.3,75.8,25.5,75.7,25.4"/>
			
				<path style="clip-path:url(#SVGID_00000179631261461428137790000005002370660699306893_);fill-rule:evenodd;clip-rule:evenodd;fill:#CE201F;" d="
				M55.9,18.8C55.9,18.8,55.9,18.7,55.9,18.8c-0.2-0.9-0.2-1.7-0.1-2.5c0-0.2,0.1-0.5,0.3-0.6c1.3,0,2.7,0.1,4,0.1
				c0.2,0,0.2,0.1,0.3,0.3c0.2,0.7,0.1,1.4,0.1,2.1c0,0.2,0,0.2-0.2,0.2c-0.5,0-1,0-1.5,0c-0.2,0-0.2-0.1-0.2-0.3c0-0.5,0-1,0-1.4
				c0-0.2,0-0.4-0.2-0.4c-0.2-0.1-0.4,0-0.5,0.1l0,0c-0.2,0.5-0.1,1,0,1.4c0,0.1,0.1,0.3,0.2,0.4c0.1,0.2,0.3,0.4,0.5,0.6
				c0.5,0.5,1,0.9,1.4,1.5l0,0c0.1,0.2,0.3,0.3,0.3,0.4c0.1,0.1,0.2,0.2,0.3,0.4c0.2,1,0.2,2,0,3c0,0-0.1,0.1-0.1,0.1
				c-0.1,0.3-0.3,0.4-0.5,0.6l0,0c-1.2,0.6-2.4,0.6-3.6,0l0,0c-0.2-0.2-0.4-0.4-0.5-0.7l0,0c-0.2-0.4-0.1-0.9-0.1-1.4
				c0-0.5,0-0.9,0-1.4c0-0.2,0.1-0.3,0.3-0.3c0.5,0,0.9,0,1.4,0c0.2,0,0.3,0.1,0.3,0.3c0,0.6,0,1.3,0,1.9c0,0.3,0.2,0.5,0.5,0.5
				c0.2,0,0.4-0.2,0.4-0.4c0-0.4,0-0.8,0-1.2c0-0.3-0.2-0.5-0.3-0.8c-0.1-0.1-0.2-0.2-0.2-0.2c-0.1-0.2-0.2-0.3-0.3-0.4
				c-0.5-0.5-1-1-1.4-1.5l0,0C56.1,19.1,56,19,55.9,18.8"/>
			
				<path style="clip-path:url(#SVGID_00000179631261461428137790000005002370660699306893_);fill-rule:evenodd;clip-rule:evenodd;fill:#CE201F;" d="
				M72.3,16.2c0.7,0,1.4,0,2.1,0.1c0,1.1,0,2.1,0,3.2c0,0.2-0.1,0.4,0.2,0.4c0.2,0,0.4-0.1,0.5-0.3c0,0,0-0.1,0-0.1
				c0-0.8,0-1.7,0-2.5c0-0.2-0.1-0.4-0.3-0.5c-0.1,0-0.1-0.1-0.1-0.2c0.8,0,1.7,0,2.5,0.1c0.1,0.1,0,0.2,0,0.3c0,1,0,2.1,0,3.1
				c-0.1,0.5-0.2,1-0.7,1.3c-0.3,0.1-0.5,0.2-0.8,0.2c-0.2,0-0.4,0.1-0.6,0.1c-0.3,0-0.6-0.1-0.8,0.1c-0.2,0.2,0,0.5,0,0.7
				c0,0.9,0,1.8,0,2.7c0,0.2-0.1,0.3-0.3,0.3c-0.5,0-1,0-1.6,0c-0.2,0-0.2,0-0.2-0.2C72.3,22,72.3,19.1,72.3,16.2
				C72.3,16.2,72.3,16.2,72.3,16.2"/>
			
				<path style="clip-path:url(#SVGID_00000179631261461428137790000005002370660699306893_);fill-rule:evenodd;clip-rule:evenodd;fill:#CE201F;" d="
				M45.1,15.3c1.5,0,3,0.1,4.5,0.1c0.1,0.8,0.1,0.8-0.7,0.8c-0.1,0-0.3,0-0.4,0c-0.1,0.1-0.1,0.3-0.1,0.4c0,2.6,0,5.3,0,7.9
				c0,0.4,0,0.4-0.4,0.4c-0.5,0-0.9,0-1.4,0c-0.3,0-0.3,0-0.3-0.4c0-2.6,0-5.2,0-7.8c0-0.2,0.1-0.4-0.1-0.6c-0.3,0-0.6,0-0.9,0
				c-0.1,0-0.2,0-0.2-0.2C45.1,15.8,45.1,15.6,45.1,15.3"/>
			
				<path style="clip-path:url(#SVGID_00000179631261461428137790000005002370660699306893_);fill-rule:evenodd;clip-rule:evenodd;fill:#CE201F;" d="
				M82.2,26.3c-0.4-0.3-0.4-0.8-0.5-1.2c-0.1-0.9,0.1-1.8,0.4-2.7c0-0.1,0.1-0.2,0.2-0.3c0-0.1,0.1-0.2,0.2-0.1
				c0.1,0,0.1,0.1,0.1,0.2c-0.1,0.3-0.1,0.6-0.2,0.9c0,0.3,0,0.6,0,0.9c0.4-1.1,1-2.1,2-2.7c0.3-0.1,0.6-0.2,0.9-0.3
				c0.1,0,0.2-0.1,0.2-0.2c0-0.1,0-0.3,0.1-0.4c0.3-0.7,0.6-1.5,0.7-2.3c0-0.1,0-0.3,0.2-0.4c0.4,0.2,0.7,0.4,1.1,0.6
				c0,0.2-0.1,0.3-0.2,0.4c-0.1,0.2-0.3,0.3-0.4,0.5c0,0.4,0,0.8,0,1.1c0,0.1,0,0.3-0.2,0.2c0,0,0,0-0.1-0.1
				c-0.1-0.1-0.1-0.4-0.3-0.2c-0.1,0.5,0,1,0,1.5c0,0.1,0,0.3-0.1,0.4c-0.1,0.2-0.3,0.4-0.5,0.6c-0.2,0.1-0.4,0.1-0.6-0.2
				c-0.1-0.2-0.2-0.2-0.4-0.1c-1,0.3-1.5,1.2-1.9,2C82.6,25.1,82.4,25.7,82.2,26.3"/>
			
				<path style="clip-path:url(#SVGID_00000179631261461428137790000005002370660699306893_);fill-rule:evenodd;clip-rule:evenodd;fill:#FEFEFE;" d="
				M58.5,14.5c0,0,1.9,0,2.9,0c5.2,0,10.3,0,15.5,0c0.4,0,0.3,0.2,0.3,0.4c0,0.2-0.1,0.3-0.3,0.3c-5.8-0.2-11.6-0.4-17.4-0.6
				c-0.3,0-0.7,0-1,0C58.6,14.6,58.6,14.5,58.5,14.5"/>
			
				<path style="clip-path:url(#SVGID_00000179631261461428137790000005002370660699306893_);fill-rule:evenodd;clip-rule:evenodd;fill:#DDB651;" d="
				M79.7,21.7c-0.7,0.5-1.4,0.9-2.3,0.4c0.3-0.2,0.6-0.5,0.8-0.8c0,0,0.1,0,0.1,0c0.1,0,0.2,0.1,0.2,0c0.1-0.1,0-0.1-0.1-0.2
				c0,0-0.1-0.1-0.1-0.1c0,0,0,0,0-0.1c0.1-0.1,0.3-0.2,0.4-0.3c0.3-0.3,0.3-0.6,0-0.9c-0.1-0.1-0.1-0.1-0.2-0.2c0-0.4,0-0.7,0-1.1
				c0.2-0.3,0.5-0.4,0.8-0.5c0.9-0.4,1.9-0.6,2.9-0.7c0.3,0,0.6-0.1,0.9-0.2c0.1,0,0.2-0.1,0.3,0c-0.3,0.5-0.6,0.9-0.9,1.4
				c-0.5,0.2-0.9,0.1-1.4,0.1c-0.6-0.1-1.1,0.1-1.6,0.3c-0.2,0.1-0.2,0.2,0,0.3c0.1,0.1,0.2,0.1,0.3,0.2c0.1,0.1,0.1,0.3,0,0.4
				c-0.4,0.3-0.5,0.6-0.6,1c-0.1,0.4-0.3,0.7-0.7,0.9C79.1,21.8,79.4,21.6,79.7,21.7"/>
			
				<path style="clip-path:url(#SVGID_00000179631261461428137790000005002370660699306893_);fill-rule:evenodd;clip-rule:evenodd;fill:#CE211F;" d="
				M83.7,16.9c-0.6,0.3-1.3,0.4-1.9,0.4c-1.1,0.1-2.2,0.5-3.1,1.1c-0.1-0.8-0.1-0.8,0.6-1.1c0.6-0.3,1.2-0.4,1.9-0.5
				c1-0.2,1.8-0.5,2.6-1.2c0.1-0.1,0.3-0.3,0.2-0.5c-0.1-0.2-0.3-0.2-0.5-0.3c-0.3,0-0.6,0.1-0.9,0.2c-0.1,0-0.1,0.1-0.2,0
				c0.3-0.5,0.7-0.9,1.1-1.3c0.5,0.3,0.8,0.8,1,1.3c0.1,0.3,0.3,0.5,0.4,0.8c0,0.2-0.2,0.4-0.4,0.4c0-0.1-0.1-0.2-0.1-0.3
				C84.1,16.4,83.9,16.6,83.7,16.9"/>
			
				<path style="clip-path:url(#SVGID_00000179631261461428137790000005002370660699306893_);fill-rule:evenodd;clip-rule:evenodd;fill:#CC211F;" d="
				M88,18.7c0.1,0.1,0.3,0.1,0.4,0.1c-0.4,0.9-0.5,1.9-0.6,2.8c-0.1,1.3-0.8,2.3-1.8,3c-0.6,0.4-1.2,0.7-1.8,1
				c-0.2,0-0.4-0.1-0.5-0.4c0.2-0.4,0.5-0.7,0.8-1c0.3-0.3,0.6-0.6,0.8-0.9c0.1-0.2,0.5-0.3,0.7-0.4c0.1,0.1,0,0.2,0,0.4
				c-0.2,0.3-0.4,0.6-0.7,0.8c-0.1,0.1-0.3,0.3-0.4,0.5c0.4-0.1,0.8-0.3,1-0.6c0.7-0.7,1.2-1.6,1.3-2.7c0.1-0.8,0.2-1.6,0.5-2.4
				C87.8,18.9,87.8,18.7,88,18.7"/>
			
				<path style="clip-path:url(#SVGID_00000179631261461428137790000005002370660699306893_);fill-rule:evenodd;clip-rule:evenodd;fill:#FEFEFE;" d="
				M92.4,7c-0.9-0.2-1.7-0.5-2.5-0.7c-1.2-0.3-2.4-0.7-3.6-1C86.1,5.3,86,5.2,86,5c0-0.2,0.1-0.4,0.3-0.4c0.6-0.2,1.2-0.1,1.8,0.1
				c1.5,0.5,2.9,1.1,4.1,2.1C92.3,6.9,92.3,7,92.4,7"/>
			
				<path style="clip-path:url(#SVGID_00000179631261461428137790000005002370660699306893_);fill-rule:evenodd;clip-rule:evenodd;fill:#DDB651;" d="
				M88,18.7c-0.3,0.6-0.4,1.3-0.5,1.9c-0.1,0.7-0.2,1.4-0.5,2.1c-0.4,0.9-1,1.7-1.9,2.1c-0.1,0-0.2,0.2-0.3,0
				c-0.1-0.1,0-0.2,0.1-0.3c0.2-0.2,0.5-0.5,0.7-0.7c0.2-0.2,0.4-0.5,0.4-0.8c0.1-0.1,0.1-0.2,0.2-0.3c0.1-0.2,0.1-0.3-0.1-0.5
				c0-0.6,0-1.2,0-1.8c0-0.1-0.1-0.3,0.1-0.3c0.2,0.1,0.2,0.3,0.4,0.4l0,0c0,0.1,0.1,0.2,0.2,0.1c0.1,0,0.1-0.1,0.1-0.2
				c0-0.3,0-0.6,0.1-0.9c0-0.1-0.1-0.2-0.1-0.3c0.2-0.3,0.5-0.5,0.7-0.8C87.7,18.5,87.9,18.6,88,18.7"/>
			
				<path style="clip-path:url(#SVGID_00000179631261461428137790000005002370660699306893_);fill-rule:evenodd;clip-rule:evenodd;fill:#FFFFFF;" d="
				M90.9,10.2c0.5,0.1,1,0,1.5,0c0.9,0,1.8-0.1,2.7-0.2c0.1,0,0.2,0,0.2,0.2c0.1,0.2,0.2,0.4,0.2,0.7c0,0.4-0.1,0.6-0.6,0.7
				c-0.5,0.1-1.1,0-1.6-0.2C92.5,11.1,91.6,10.8,90.9,10.2C90.8,10.3,90.8,10.2,90.9,10.2"/>
			
				<path style="clip-path:url(#SVGID_00000179631261461428137790000005002370660699306893_);fill-rule:evenodd;clip-rule:evenodd;fill:#FCFCFC;" d="
				M86.7,6.6C86.9,6.9,87.2,7,87.5,7c0.9,0.1,1.9,0.4,2.8,0.5c1.1,0.2,2.3,0.6,3.4,0.7c0.3,0,0.4,0.3,0.6,0.6
				c-1-0.3-1.9-0.4-2.9-0.6c-0.8-0.1-1.5-0.3-2.3-0.4c-0.5-0.1-0.9-0.2-1.4-0.3c-0.1,0-0.2-0.1-0.3,0c-0.1,0.1-0.1,0-0.2-0.1
				C87,7.2,86.8,7,86.6,6.8C86.6,6.7,86.6,6.6,86.7,6.6"/>
			
				<path style="clip-path:url(#SVGID_00000179631261461428137790000005002370660699306893_);fill-rule:evenodd;clip-rule:evenodd;fill:#CD211F;" d="
				M76.9,30.6c0.2,0,0.3,0.1,0.5,0.1C77.2,30.9,77,31,76.7,31c-0.8,0.2-1.3,0.8-1.8,1.4c-0.3,0.4-0.6,0.7-0.9,1.1
				c0-1.1,0.4-2.6,1.6-3.8c0.1,0.1,0.2,0.3,0.3,0.4c0,0.2-0.1,0.2-0.2,0.3c-0.2,0.2-0.5,0.4-0.5,0.7C75.7,30.9,76.2,30.5,76.9,30.6"
				/>
			
				<path style="clip-path:url(#SVGID_00000179631261461428137790000005002370660699306893_);fill-rule:evenodd;clip-rule:evenodd;fill:#CE9493;" d="
				M46.2,16.2c0.2,0.1,0.1,0.2,0.1,0.4c0,2.7,0,5.4,0,8c0,0.3,0.1,0.4,0.4,0.4c0.4,0,0.9,0,1.3,0c0.3,0,0.3-0.1,0.3-0.3
				c0-2.7,0-5.4,0-8.1c0-0.1-0.1-0.3,0.1-0.4c0,0,0,0,0,0c0,0,0,0,0,0c0,1.4,0,2.8,0,4.3c0,1.4,0,2.8,0,4.2c0,0.3-0.1,0.4-0.3,0.3
				c-0.5,0-1.1,0-1.6,0c-0.3,0-0.4-0.1-0.4-0.4c0-1.8,0-3.5,0-5.3C46.3,18.4,46.3,17.3,46.2,16.2C46.2,16.3,46.2,16.3,46.2,16.2
				C46.2,16.2,46.2,16.2,46.2,16.2"/>
			
				<path style="clip-path:url(#SVGID_00000179631261461428137790000005002370660699306893_);fill-rule:evenodd;clip-rule:evenodd;fill:#CBCACA;" d="
				M85.6,6.3c0.8,1.9,2.3,3.2,4,4.3c1,0.6,2,1.2,3.2,1.6c0.6,0.2,1.1,0.3,1.8,0.3c-0.1,0.2-0.2,0.1-0.3,0.1c-1,0-1.9-0.3-2.8-0.7
				c-1.5-0.7-2.9-1.7-4.1-2.8c-0.7-0.7-1.3-1.4-1.7-2.3C85.6,6.5,85.5,6.4,85.6,6.3C85.5,6.3,85.5,6.2,85.6,6.3"/>
			
				<path style="clip-path:url(#SVGID_00000179631261461428137790000005002370660699306893_);fill-rule:evenodd;clip-rule:evenodd;fill:#CCCBCB;" d="
				M86.1,6.5c1.6,2.5,3.9,4,6.5,5.1c0.6,0.2,1.2,0.4,1.8,0.4c0.1,0,0.2,0,0.3,0.1c-0.4,0.1-0.8,0.1-1.1,0c-1.5-0.3-2.9-1.1-4.1-2
				c-1.1-0.8-2.2-1.7-3-2.8c-0.2-0.2-0.3-0.4-0.4-0.7C85.9,6.6,85.9,6.5,86.1,6.5"/>
			
				<path style="clip-path:url(#SVGID_00000179631261461428137790000005002370660699306893_);fill-rule:evenodd;clip-rule:evenodd;fill:#CA2921;" d="
				M75.2,28.5c-0.4,0.4-0.6,0.8-0.9,1.2c-0.1,0.1-0.1,0.3-0.4,0.4c0.5-1.1,0.4-2.3,0.9-3.3c0.2,0,0.2,0.1,0.3,0.2
				c0.1,0.1,0.1,0.2,0.1,0.3c0,0.1,0,0.3-0.1,0.4c0,0.1-0.1,0.3,0,0.4C75.3,28.2,75.3,28.4,75.2,28.5"/>
			
				<path style="clip-path:url(#SVGID_00000179631261461428137790000005002370660699306893_);fill-rule:evenodd;clip-rule:evenodd;fill:#FDFCFC;" d="
				M83.7,25.3c0.2,0.1,0.3,0.2,0.5,0.4c0.1,0.2,0.2,0.3,0.3,0.4c0.2,0.1,0.1,0.3,0.1,0.5c-0.1,0.2-0.2,0.1-0.3,0
				c-0.6-0.1-1-0.5-1.3-1c-0.1-0.1,0-0.1,0.1-0.2C83.3,25.3,83.5,25.3,83.7,25.3"/>
			
				<path style="clip-path:url(#SVGID_00000179631261461428137790000005002370660699306893_);fill-rule:evenodd;clip-rule:evenodd;fill:#FDF6F6;" d="
				M31.2,14.9c0,3.3,0,6.6,0,9.9c0,0.2,0,0.2,0.2,0.2c0.4,0,0.8,0,1.1,0c0.2,0,0.3-0.1,0.3-0.3c0-1.6,0-3.3,0-4.9c0-0.1,0-0.2,0-0.4
				c0,0,0,0,0.1,0c0,1.8,0,3.6,0,5.3c0,0.2,0,0.2-0.2,0.2c-0.4,0-0.9,0-1.3,0c-0.1,0-0.2,0-0.2-0.2c0-3.3,0-6.6,0-9.9
				C31.1,14.9,31.1,14.9,31.2,14.9C31.2,14.8,31.2,14.8,31.2,14.9C31.2,14.8,31.2,14.8,31.2,14.9"/>
			
				<path style="clip-path:url(#SVGID_00000179631261461428137790000005002370660699306893_);fill-rule:evenodd;clip-rule:evenodd;fill:#EFEFEF;" d="
				M92.5,9.1c-1.2-0.1-2.4-0.3-3.6-0.4c-0.1-0.1-0.2,0.1-0.3,0.1c-0.2-0.2-0.4-0.4-0.6-0.5c1,0.2,1.9,0.3,2.9,0.5
				C91.6,8.8,92.3,9,93,9.1C92.9,9.3,92.7,9.1,92.5,9.1"/>
			
				<path style="clip-path:url(#SVGID_00000179631261461428137790000005002370660699306893_);fill-rule:evenodd;clip-rule:evenodd;fill:#EDCDCD;" d="
				M72.3,16.2c0,2.8,0,5.7,0,8.5c0,0.2,0.1,0.3,0.3,0.3c0.5,0,1,0,1.5,0c0.2,0,0.3-0.1,0.3-0.3c0-1,0-2.1,0-3.1
				c0-0.3,0.1-0.4,0.3-0.3c0.2,0,0.4,0,0.6,0c0,0,0,0,0,0c0,0,0,0,0,0c-0.1,0-0.2,0-0.3,0c-0.6,0-0.6,0-0.6,0.6c0,1,0,1.9,0,2.9
				c0,0.2,0,0.3-0.3,0.3c-0.6,0-1.1,0-1.7,0c-0.2,0-0.2,0-0.2-0.2c0-2.8,0-5.7,0-8.5C72.3,16.3,72.2,16.2,72.3,16.2"/>
			
				<path style="clip-path:url(#SVGID_00000179631261461428137790000005002370660699306893_);fill-rule:evenodd;clip-rule:evenodd;fill:#D0B1AF;" d="
				M58.2,21.4c0.2,0.2,0.3,0.4,0.4,0.7c0,0.5,0,0.9,0,1.4c0,0.3-0.2,0.4-0.5,0.4c-0.3,0-0.5-0.1-0.5-0.5c0-0.6,0-1.3,0-1.9
				c0-0.3-0.1-0.3-0.3-0.3c-0.4,0-0.9,0-1.3,0c-0.2,0-0.3,0.1-0.3,0.3c0,0.9-0.1,1.8,0.1,2.7c-0.1-0.1-0.1-0.3-0.1-0.4
				c0-0.8,0-1.6,0-2.4c0-0.2,0-0.2,0.2-0.2c0.5,0,1,0,1.6,0c0.2,0,0.3,0.1,0.3,0.3c0,0.6,0,1.3,0,1.9c0,0.4,0.1,0.5,0.4,0.5
				c0.3,0,0.4-0.1,0.4-0.5c0-0.1,0-0.1,0-0.2C58.5,22.5,58.5,21.9,58.2,21.4"/>
			
				<path style="clip-path:url(#SVGID_00000179631261461428137790000005002370660699306893_);fill-rule:evenodd;clip-rule:evenodd;fill:#D9B1AD;" d="
				M35.8,24.9c0.3-1.4,0.5-2.7,0.8-4.1c0.1-0.5,0.1-1,0.3-1.5c0.1-0.2,0.1,0,0.1,0c0,0.9,0,1.9,0,2.8c0,0.9,0,1.9,0,2.8
				c0,0,0,0.1,0,0.1C36.9,25,37,24.9,37,24.8c0-1.6,0-3.1,0-4.7v-0.4c0,0,0,0-0.1,0c-0.2,1-0.4,2-0.6,3C36.2,23.4,36,24.2,35.8,24.9
				C35.8,24.9,35.8,24.9,35.8,24.9"/>
			
				<path style="clip-path:url(#SVGID_00000179631261461428137790000005002370660699306893_);fill-rule:evenodd;clip-rule:evenodd;fill:#EDB1B1;" d="
				M37.1,25.1C37.1,25.1,37.1,25,37.1,25.1C37.1,25,37.1,25,37.1,25.1c0.6-0.1,1.1-0.1,1.6-0.1c0.3,0,0.3-0.1,0.3-0.3
				c0-2.6,0-5.3,0-7.9c0-0.6,0-1.1,0-1.7c0.1,0.1,0.1,0.2,0.1,0.3c0,3.1,0,6.3,0,9.4c0,0.2,0,0.3-0.3,0.3
				C38.2,25.1,37.6,25.1,37.1,25.1"/>
			
				<path style="clip-path:url(#SVGID_00000179631261461428137790000005002370660699306893_);fill-rule:evenodd;clip-rule:evenodd;fill:#EDB1B1;" d="
				M64.2,25c0.6,0,1.1,0,1.7,0c0.3,0,0.3-0.1,0.3-0.3c0-2.7,0-5.4,0-8c0-0.2,0-0.4,0-0.7c0.2,0.1,0.1,0.2,0.1,0.3c0,2.9,0,5.7,0,8.6
				c0,0.2,0,0.3-0.3,0.3c-0.7,0-1.3,0-2,0C64.1,25,64.1,25,64.2,25"/>
			
				<path style="clip-path:url(#SVGID_00000179631261461428137790000005002370660699306893_);fill-rule:evenodd;clip-rule:evenodd;fill:#B8AFAE;" d="
				M43.9,24.8C43.9,24.7,43.9,24.7,43.9,24.8c0.6-0.5,0.6-1.2,0.6-1.9c0-1.6,0-3.1,0-4.7c0-0.9,0.1-1.7-0.4-2.5
				c0.4,0.3,0.4,0.8,0.5,1.2c0,2.2,0,4.4,0,6.6C44.7,24,44.5,24.5,43.9,24.8"/>
			
				<path style="clip-path:url(#SVGID_00000179631261461428137790000005002370660699306893_);fill-rule:evenodd;clip-rule:evenodd;fill:#B4AFAF;" d="
				M71.1,24.8C71.1,24.7,71.1,24.7,71.1,24.8c0.6-0.5,0.6-1.2,0.6-1.9c0-1.9,0-3.8,0-5.7c0-0.3,0-0.7-0.1-1c0.3,0.2,0.2,0.5,0.2,0.8
				c0,1.9,0,3.8,0,5.6c0,0.4,0,0.8,0,1.2C71.7,24.2,71.5,24.5,71.1,24.8"/>
			
				<path style="clip-path:url(#SVGID_00000179631261461428137790000005002370660699306893_);fill-rule:evenodd;clip-rule:evenodd;fill:#E48080;" d="
				M64.2,25c0,0-0.1,0-0.1,0c-0.1-0.4,0-0.8,0-1.1c0-1.2,0-2.5,0-3.7c0,0,0,0,0,0c0,0,0,0,0,0c0.2,0.1,0.1,0.2,0.1,0.4
				C64.2,22,64.2,23.5,64.2,25"/>
			
				<path style="clip-path:url(#SVGID_00000179631261461428137790000005002370660699306893_);fill-rule:evenodd;clip-rule:evenodd;fill:#CA2520;" d="
				M78.7,19.5c0.4,0.2,0.5,0.4,0.5,0.7c-0.1,0.3-0.3,0.6-0.7,0.7C78.5,20.4,78.7,20,78.7,19.5"/>
			
				<path style="clip-path:url(#SVGID_00000179631261461428137790000005002370660699306893_);fill-rule:evenodd;clip-rule:evenodd;fill:#D4D3D3;" d="
				M61.3,15.8c0,3.1,0,6.1,0,9.2c0,0,0,0,0,0c0,0,0,0,0,0c-0.1-0.1-0.1-0.2-0.1-0.3c0-2.9,0-5.8,0-8.7C61.2,16,61.1,15.9,61.3,15.8"
				/>
			
				<path style="clip-path:url(#SVGID_00000179631261461428137790000005002370660699306893_);fill-rule:evenodd;clip-rule:evenodd;fill:#D4B1AF;" d="
				M50.3,16.4c-0.1,2.4,0,4.7,0,7.1c0,0.5,0.2,1,0.6,1.3c-0.5-0.2-0.6-0.6-0.7-1.1c0-0.1,0-0.2,0-0.4c0-2.1,0-4.2,0-6.3
				c0-0.1,0-0.2,0-0.4C50.2,16.5,50.2,16.4,50.3,16.4C50.2,16.3,50.2,16.3,50.3,16.4"/>
			
				<path style="clip-path:url(#SVGID_00000179631261461428137790000005002370660699306893_);fill-rule:evenodd;clip-rule:evenodd;fill:#D4B1AF;" d="
				M39.7,16.4c-0.1,2.4,0,4.7,0,7.1c0,0.5,0.2,1,0.6,1.3c-0.5-0.2-0.6-0.6-0.7-1.1c0-0.1,0-0.2,0-0.4c0-2.1,0-4.2,0-6.3
				c0-0.1,0-0.2,0-0.4C39.6,16.5,39.6,16.4,39.7,16.4C39.6,16.3,39.7,16.3,39.7,16.4"/>
			
				<path style="clip-path:url(#SVGID_00000179631261461428137790000005002370660699306893_);fill-rule:evenodd;clip-rule:evenodd;fill:#D4B1AF;" d="
				M66.8,16.4c0,2.2,0,4.5,0,6.7c0,0.7,0.1,1.3,0.6,1.7c-0.5-0.2-0.6-0.6-0.7-1.1c0-0.1,0-0.2,0-0.4c0-2.1,0-4.2,0-6.3
				c0-0.1,0-0.2,0-0.4C66.7,16.5,66.7,16.4,66.8,16.4"/>
			
				<path style="clip-path:url(#SVGID_00000179631261461428137790000005002370660699306893_);fill-rule:evenodd;clip-rule:evenodd;fill:#DED9D9;" d="
				M75.2,28.5c0-0.2,0.1-0.4-0.2-0.4c0,0,0-0.1,0-0.2c0-0.2,0.1-0.3,0.1-0.5c0.1-0.1,0-0.2,0-0.4c0-0.1,0-0.2,0.2-0.3
				c0,0.1,0,0.2,0.1,0.2c0.1,0.1,0.1,0.2,0.1,0.2c-0.1,0.7-0.1,1.3,0.1,2c0,0.1,0,0.2,0,0.3c-0.1,0,0,0.1-0.1,0.2
				C75.4,29.2,75.3,28.9,75.2,28.5"/>
			
				<path style="clip-path:url(#SVGID_00000179631261461428137790000005002370660699306893_);fill-rule:evenodd;clip-rule:evenodd;fill:#D2D2D2;" d="
				M90,11.4c-1.2-0.6-2.2-1.4-3.1-2.4c0-0.1,0-0.1,0.1-0.1c0.6,0.5,1.2,1.1,1.9,1.6C89.3,10.8,89.7,11.1,90,11.4
				C90.1,11.4,90.1,11.5,90,11.4"/>
			
				<path style="clip-path:url(#SVGID_00000179631261461428137790000005002370660699306893_);fill-rule:evenodd;clip-rule:evenodd;fill:#2C2C2C;" d="
				M75.4,26.7c-0.1,0.2-0.1,0.4-0.2,0.6c0-0.1-0.1-0.2-0.1-0.3c-0.1-0.3,0.1-0.6,0.2-0.9c0-0.1,0.1-0.1,0.1-0.2
				c0.1-0.2,0.2-0.4,0.2-0.5c0.1,0.1,0.1-0.1,0.2-0.1c0.2-0.3,0.4-0.5,0.6-0.8c0.1-0.1,0.1-0.2,0.2-0.1c0.1,0.1,0,0.2-0.1,0.3
				C76,25.1,75.6,25.9,75.4,26.7"/>
			
				<path style="clip-path:url(#SVGID_00000179631261461428137790000005002370660699306893_);fill-rule:evenodd;clip-rule:evenodd;fill:#DFB4B1;" d="
				M55.1,23.9c0.1-2.3,0-4.6,0-7c0-0.5-0.1-0.9-0.4-1.3c0.4,0.2,0.4,0.6,0.4,0.9c0,0.1,0,0.2,0,0.2c0,2.2,0,4.4,0,6.7
				c0,0.1,0,0.2,0,0.2C55.2,23.7,55.2,23.8,55.1,23.9C55.2,23.9,55.1,23.9,55.1,23.9"/>
			
				<path style="clip-path:url(#SVGID_00000179631261461428137790000005002370660699306893_);fill-rule:evenodd;clip-rule:evenodd;fill:#D7B3B0;" d="
				M35.9,16c-0.2,1.4-0.5,2.7-0.7,4.1c0,0-0.1,0-0.1,0c-0.2-0.7-0.3-1.5-0.5-2.2c0-0.1,0-0.1,0-0.2c0.2,0.6,0.3,1.3,0.4,1.9
				c0,0.1,0,0.2,0.1,0.3c0.2-1.2,0.4-2.5,0.6-3.7C35.7,16.1,35.8,16,35.9,16"/>
			
				<path style="clip-path:url(#SVGID_00000179631261461428137790000005002370660699306893_);fill-rule:evenodd;clip-rule:evenodd;fill:#D1AEAB;" d="
				M32.9,19.5C32.9,19.5,32.9,19.5,32.9,19.5c-0.1-0.1,0-0.2,0-0.3c0.1,0.3,0.2,0.7,0.3,1c0.4,1.5,0.7,3.1,1.1,4.6
				c0,0.1,0,0.1,0,0.2c0,0,0,0,0,0c0,0,0,0,0,0c-0.2-0.6-0.3-1.2-0.5-1.8C33.5,22,33.2,20.8,32.9,19.5C33,19.5,33,19.5,32.9,19.5
				C32.9,19.5,32.9,19.5,32.9,19.5"/>
			
				<path style="clip-path:url(#SVGID_00000179631261461428137790000005002370660699306893_);fill-rule:evenodd;clip-rule:evenodd;fill:#F9E4E4;" d="
				M61.3,25.1C61.3,25.1,61.3,25,61.3,25.1c0.6-0.1,1.3-0.1,1.9-0.1c0.2,0,0.2-0.1,0.2-0.3c0-1.4,0-2.7,0-4.1c0-0.5-0.1-0.5,0.5-0.5
				c0.1,0,0.1,0,0.2,0c0,0,0,0,0,0.1c-0.6,0-0.6,0-0.6,0.6c0,1.3,0,2.7,0,4c0,0.2,0,0.3-0.3,0.3C62.6,25.1,61.9,25.1,61.3,25.1"/>
			
				<path style="clip-path:url(#SVGID_00000179631261461428137790000005002370660699306893_);fill-rule:evenodd;clip-rule:evenodd;fill:#E6D9D8;" d="
				M57.9,16.4c0.1-0.2,0.3-0.2,0.4-0.2c0.2,0,0.3,0.2,0.3,0.4c0,0.5,0,1,0,1.5c0,0.2,0,0.2,0.2,0.2c0.5,0,1,0,1.5,0
				c0.2,0,0.2-0.1,0.2-0.2c0-0.7,0-1.4-0.1-2.1c0.1,0.2,0.1,0.4,0.1,0.6c0,0.5,0,1.1,0,1.6c0,0.2,0,0.2-0.2,0.2c-0.5,0-1.1,0-1.6,0
				c-0.2,0-0.2-0.1-0.2-0.2c0-0.5,0-0.9,0-1.4c0-0.2,0-0.4-0.1-0.5C58.2,16.2,58,16.3,57.9,16.4"/>
			
				<path style="clip-path:url(#SVGID_00000179631261461428137790000005002370660699306893_);fill-rule:evenodd;clip-rule:evenodd;fill:#B3B2B2;" d="
				M87,8.9L87,8.9c-0.9-0.7-1.6-1.5-1.7-2.6l0.1,0c0.1,0.2,0.2,0.5,0.3,0.7c0.3,0.6,0.7,1.2,1.2,1.7C86.8,8.8,86.9,8.9,87,8.9"/>
			
				<path style="clip-path:url(#SVGID_00000179631261461428137790000005002370660699306893_);fill-rule:evenodd;clip-rule:evenodd;fill:#B4AFAF;" d="
				M55.2,23.7c0-2.4,0-4.7,0-7.1c0.1,0.1,0.1,0.3,0.1,0.4c0,2.1,0,4.2,0,6.3C55.2,23.4,55.3,23.6,55.2,23.7"/>
			
				<path style="clip-path:url(#SVGID_00000179631261461428137790000005002370660699306893_);fill-rule:evenodd;clip-rule:evenodd;fill:#A3A0A0;" d="
				M39.6,16.6c0,1.2,0,2.4,0,3.5c0,1.2,0,2.4,0,3.5c-0.1-0.1-0.1-0.2-0.1-0.3c0-2.1,0-4.2,0-6.4C39.5,16.8,39.5,16.7,39.6,16.6"/>
			
				<path style="clip-path:url(#SVGID_00000179631261461428137790000005002370660699306893_);fill-rule:evenodd;clip-rule:evenodd;fill:#A3A0A0;" d="
				M50.2,16.6c0,1.2,0,2.4,0,3.5c0,1.2,0,2.4,0,3.5c-0.1-0.1-0.1-0.2-0.1-0.3c0-2.1,0-4.2,0-6.4C50.1,16.8,50.1,16.7,50.2,16.6"/>
			
				<path style="clip-path:url(#SVGID_00000179631261461428137790000005002370660699306893_);fill-rule:evenodd;clip-rule:evenodd;fill:#A2A0A0;" d="
				M66.7,16.6c0,1.2,0,2.3,0,3.5c0,1.2,0,2.4,0,3.6c-0.1-0.1-0.1-0.2-0.1-0.3c0-2.1,0-4.2,0-6.4C66.7,16.8,66.7,16.7,66.7,16.6"/>
			
				<path style="clip-path:url(#SVGID_00000179631261461428137790000005002370660699306893_);fill-rule:evenodd;clip-rule:evenodd;fill:#D1C7C6;" d="
				M75.2,19.5c0,0.2-0.1,0.3-0.2,0.4c-0.2,0.1-0.4,0.2-0.5,0.1c-0.2-0.1-0.1-0.3-0.1-0.4c0-1,0-2,0-3c0-0.1-0.1-0.3,0.1-0.3
				c0.1,0,0.2,0,0.3,0c0.2,0.1,0.5,0.2,0.5,0.5c0,0-0.1,0-0.1,0c-0.2-0.1-0.3-0.4-0.5-0.3c-0.2,0.1-0.1,0.3-0.1,0.5
				c0,0.8,0,1.6,0,2.4c0,0.1-0.1,0.3,0.1,0.4c0.1,0,0.3-0.1,0.4-0.2C75,19.6,75.1,19.6,75.2,19.5C75.1,19.5,75.2,19.5,75.2,19.5"/>
			
				<path style="clip-path:url(#SVGID_00000179631261461428137790000005002370660699306893_);fill-rule:evenodd;clip-rule:evenodd;fill:#E48081;" d="
				M64.2,15.9c0,0.9,0,1.9,0,2.8c0,0.1,0,0.3-0.1,0.3c0,0,0-0.1,0-0.1c0-0.9,0-1.8,0-2.8C64.1,16.1,64,16,64.2,15.9"/>
			
				<path style="clip-path:url(#SVGID_00000179631261461428137790000005002370660699306893_);fill-rule:evenodd;clip-rule:evenodd;fill:#F4F0F0;" d="
				M75.4,25.9c0,0.3-0.2,0.5-0.2,0.8c0,0.1-0.1,0.2-0.1,0.4c-0.2,0-0.2-0.2-0.3-0.2c-0.2-0.3-0.2-0.3,0.1-0.5
				C75.1,26.2,75.3,26.1,75.4,25.9"/>
			
				<path style="clip-path:url(#SVGID_00000179631261461428137790000005002370660699306893_);fill-rule:evenodd;clip-rule:evenodd;fill:#AAAAAA;" d="
				M88.7,8.8c0.1,0,0.1-0.3,0.3-0.1c-0.3,0.1,0,0.2,0,0.2c0.5,0.4,1.1,0.8,1.7,1.2c0.1,0,0.2,0.1,0.2,0.2c0,0-0.1,0-0.1,0.1
				C90,9.9,89.3,9.4,88.7,8.8"/>
			
				<path style="clip-path:url(#SVGID_00000179631261461428137790000005002370660699306893_);fill-rule:evenodd;clip-rule:evenodd;fill:#DCBB55;" d="
				M76.6,22.5c-0.1,0.2-0.3,0.5-0.4,0.7c-0.2,0.1-0.2,0.4-0.4,0.5c0-0.1,0-0.3,0-0.4c0.1-0.3,0.2-0.6,0.5-0.7
				C76.3,22.5,76.5,22.5,76.6,22.5"/>
			
				<path style="clip-path:url(#SVGID_00000179631261461428137790000005002370660699306893_);fill-rule:evenodd;clip-rule:evenodd;fill:#A9A9A9;" d="
				M92.5,9.1c0.1-0.1,0.3,0.1,0.4-0.1c0.6,0,1.1,0.1,1.7,0.2c0.1,0,0.1,0,0.1,0.1c0,0.1,0,0.1-0.1,0.1C94,9.3,93.2,9.3,92.5,9.1"/>
			
				<path style="clip-path:url(#SVGID_00000179631261461428137790000005002370660699306893_);fill-rule:evenodd;clip-rule:evenodd;fill:#D6B9B6;" d="
				M56.4,24.8c0.9,0.4,1.9,0.5,2.9,0.3c0.3-0.1,0.5-0.2,0.7-0.3c-0.3,0.3-0.7,0.4-1.2,0.4c-0.7,0.1-1.4,0.1-2.1-0.2
				C56.6,24.9,56.4,24.9,56.4,24.8"/>
			
				<path style="clip-path:url(#SVGID_00000179631261461428137790000005002370660699306893_);fill-rule:evenodd;clip-rule:evenodd;fill:#D9B5B0;" d="
				M40.3,24.8c0.7,0.3,1.3,0.4,2.1,0.4c0.5,0,0.9-0.2,1.3-0.3c-0.7,0.4-1.5,0.4-2.2,0.3C41,25.2,40.6,25.1,40.3,24.8"/>
			
				<path style="clip-path:url(#SVGID_00000179631261461428137790000005002370660699306893_);fill-rule:evenodd;clip-rule:evenodd;fill:#D9B5B0;" d="
				M50.8,24.8c0.7,0.3,1.3,0.4,2.1,0.4c0.5,0,0.9-0.2,1.3-0.3c-0.7,0.4-1.5,0.4-2.2,0.3C51.6,25.2,51.2,25.1,50.8,24.8"/>
			
				<path style="clip-path:url(#SVGID_00000179631261461428137790000005002370660699306893_);fill-rule:evenodd;clip-rule:evenodd;fill:#D9B5B0;" d="
				M67.4,24.8c0.7,0.3,1.3,0.4,2.1,0.4c0.5,0,0.9-0.2,1.3-0.3c-0.7,0.4-1.5,0.4-2.2,0.3C68.2,25.2,67.7,25.1,67.4,24.8"/>
			
				<path style="clip-path:url(#SVGID_00000179631261461428137790000005002370660699306893_);fill-rule:evenodd;clip-rule:evenodd;fill:#AEAEAD;" d="
				M90,11.4C90.1,11.4,90.1,11.4,90,11.4c0.6,0.2,1.2,0.5,1.7,0.8c0,0.1-0.1,0-0.2,0.1C91.1,12.1,90.5,11.8,90,11.4"/>
			
				<path style="clip-path:url(#SVGID_00000179631261461428137790000005002370660699306893_);fill-rule:evenodd;clip-rule:evenodd;fill:#D7AFAD;" d="
				M60,20.3c-0.6-0.6-1.2-1.2-1.8-1.8c-0.1-0.1-0.2-0.2-0.1-0.3c0.5,0.6,1.1,1.2,1.7,1.7C59.8,20.1,60,20.1,60,20.3"/>
			
				<path style="clip-path:url(#SVGID_00000179631261461428137790000005002370660699306893_);fill-rule:evenodd;clip-rule:evenodd;fill:#DFDEDE;" d="
				M91.6,12.3c0-0.1,0.1-0.1,0.2-0.1c0.5,0.2,1.1,0.4,1.6,0.5c-0.1,0.2-0.2,0.1-0.3,0.1C92.6,12.7,92.1,12.5,91.6,12.3"/>
			
				<path style="clip-path:url(#SVGID_00000179631261461428137790000005002370660699306893_);fill-rule:evenodd;clip-rule:evenodd;fill:#E9E8E8;" d="
				M84,27.3c-0.1-0.1-0.3,0-0.2-0.2c0-0.1,0.1-0.4,0.4-0.3c0.1,0,0.4,0,0.3,0.2C84.4,27.1,84.2,27.3,84,27.3"/>
			
				<path style="clip-path:url(#SVGID_00000179631261461428137790000005002370660699306893_);fill-rule:evenodd;clip-rule:evenodd;fill:#D0A6A3;" d="
				M75.3,21.3C75.3,21.3,75.3,21.3,75.3,21.3c0.2-0.2,0.5-0.1,0.7-0.2c0.8-0.2,1-0.4,1.2-1.2c0-0.1,0-0.1,0.1-0.2c0,0,0,0,0.1,0
				c-0.1,0.9-0.5,1.3-1.4,1.4C75.7,21.3,75.5,21.3,75.3,21.3"/>
			
				<path style="clip-path:url(#SVGID_00000179631261461428137790000005002370660699306893_);fill-rule:evenodd;clip-rule:evenodd;fill:#FAE5E6;" d="
				M64.1,19C64.1,19,64,19,64.1,19c-0.7,0.1-0.7,0.1-0.7-0.6c0-0.8,0-1.7,0-2.5c0.1,0.1,0.1,0.2,0.1,0.3c0,0.8,0,1.6,0,2.4
				c0,0.3,0.1,0.4,0.4,0.4C63.9,19,64,19,64.1,19"/>
			
				<path style="clip-path:url(#SVGID_00000179631261461428137790000005002370660699306893_);fill-rule:evenodd;clip-rule:evenodd;fill:#B4ABAB;" d="
				M60.6,24.1c0.1-0.5,0.1-1,0.1-1.6c0-0.5,0-0.9-0.1-1.4c0.1,0.2,0.1,0.3,0.2,0.5c0,0.8,0.1,1.5-0.1,2.3C60.6,24,60.6,24,60.6,24.1
				"/>
			
				<path style="clip-path:url(#SVGID_00000179631261461428137790000005002370660699306893_);fill-rule:evenodd;clip-rule:evenodd;fill:#E8E7E7;" d="
				M82.5,26.1c0-0.1,0.1-0.3,0.2-0.3c0.2,0,0.2,0.2,0.2,0.3c0,0.2-0.1,0.4-0.2,0.4C82.6,26.5,82.6,26.3,82.5,26.1"/>
			
				<path style="clip-path:url(#SVGID_00000179631261461428137790000005002370660699306893_);fill-rule:evenodd;clip-rule:evenodd;fill:#E2B3AE;" d="
				M56.2,19.3c0.6,0.6,1.2,1.2,1.7,1.7c0,0,0.1,0.1,0,0.1c-0.6-0.6-1.1-1.1-1.7-1.7C56.3,19.4,56.2,19.3,56.2,19.3"/>
			
				<path style="clip-path:url(#SVGID_00000179631261461428137790000005002370660699306893_);fill-rule:evenodd;clip-rule:evenodd;fill:#FBF9F9;" d="
				M77.3,19.8C77.3,19.8,77.3,19.8,77.3,19.8c-0.1-1.2-0.1-2.3-0.1-3.5c0.1,0,0.1,0.1,0.1,0.2C77.3,17.7,77.3,18.8,77.3,19.8"/>
			
				<path style="clip-path:url(#SVGID_00000179631261461428137790000005002370660699306893_);fill-rule:evenodd;clip-rule:evenodd;fill:#E3B3B2;" d="
				M56.2,15.7c-0.3,0.3-0.4,0.7-0.4,1.1c0,0.6,0,1.3,0.1,1.9c-0.3-1-0.3-1.9,0.1-2.8C56,15.8,56,15.6,56.2,15.7"/>
			
				<path style="clip-path:url(#SVGID_00000179631261461428137790000005002370660699306893_);fill-rule:evenodd;clip-rule:evenodd;fill:#CDCCCC;" d="
				M91.7,12.9c0.1,0,0.2,0,0.3-0.1c0.4,0.1,0.8,0.2,1.2,0.3c-0.3,0-0.2,0.3-0.3,0.3c-0.1-0.2-0.2-0.3-0.4-0.3
				c-0.2,0-0.4-0.1-0.5-0.1C91.8,13.1,91.7,13.1,91.7,12.9"/>
			
				<path style="clip-path:url(#SVGID_00000179631261461428137790000005002370660699306893_);fill-rule:evenodd;clip-rule:evenodd;fill:#8E8E8E;" d="
				M86.7,6.6c-0.1,0,0,0.1-0.1,0.1C86.4,6.4,86.1,6,86,5.5C86.3,5.9,86.4,6.3,86.7,6.6"/>
			
				<path style="clip-path:url(#SVGID_00000179631261461428137790000005002370660699306893_);fill-rule:evenodd;clip-rule:evenodd;fill:#C23322;" d="
				M76.2,22.6l-0.5,0.7c0-0.1,0-0.1,0-0.2C75.7,22.6,75.7,22.6,76.2,22.6"/>
			
				<path style="clip-path:url(#SVGID_00000179631261461428137790000005002370660699306893_);fill-rule:evenodd;clip-rule:evenodd;fill:#767575;" d="
				M86.1,6.5C86,6.5,86,6.6,86,6.6c-0.2-0.3-0.4-0.7-0.3-1.1C85.8,5.8,85.9,6.2,86.1,6.5"/>
			
				<path style="clip-path:url(#SVGID_00000179631261461428137790000005002370660699306893_);fill-rule:evenodd;clip-rule:evenodd;fill:#A5A5A5;" d="
				M93.1,12.8c0.1,0,0.2,0,0.3-0.1c0.4,0.1,0.7,0.1,1.1,0C94,13,93.6,12.8,93.1,12.8"/>
			
				<path style="clip-path:url(#SVGID_00000179631261461428137790000005002370660699306893_);fill-rule:evenodd;clip-rule:evenodd;fill:#FDFBF6;" d="
				M78.4,20.9C78.4,20.9,78.4,20.9,78.4,20.9c0.2,0.1,0.4,0.2,0.3,0.4c-0.1,0.2-0.3,0-0.4-0.1C78.3,21.2,78.3,21.1,78.4,20.9"/>
			
				<path style="clip-path:url(#SVGID_00000179631261461428137790000005002370660699306893_);fill-rule:evenodd;clip-rule:evenodd;fill:#F7D9D8;" d="
				M46.2,16.2C46.2,16.3,46.2,16.3,46.2,16.2c-0.3,0.1-0.7,0.1-1,0.1c-0.1,0-0.2,0-0.2-0.2c0-0.3-0.1-0.6,0.1-0.8
				c0,0.3-0.1,0.7,0,0.9c0.2,0.2,0.6,0,0.8,0.1C46.1,16.2,46.2,16.2,46.2,16.2"/>
			
				<path style="clip-path:url(#SVGID_00000179631261461428137790000005002370660699306893_);fill-rule:evenodd;clip-rule:evenodd;fill:#D9B1AD;" d="
				M34.6,17.7c0,0.1,0,0.1,0,0.2c-0.1-0.6-0.3-1.1-0.3-1.7c0,0,0,0,0.1,0C34.4,16.7,34.6,17.2,34.6,17.7"/>
			
				<path style="clip-path:url(#SVGID_00000179631261461428137790000005002370660699306893_);fill-rule:evenodd;clip-rule:evenodd;fill:#F5D6D4;" d="
				M48.5,16.3C48.5,16.3,48.5,16.3,48.5,16.3c0.3-0.1,0.6-0.1,0.9-0.1c0.2,0,0.3-0.1,0.3-0.3c0-0.2,0-0.3,0-0.5
				c0.2,0.2,0,0.5,0.1,0.8c0,0.1-0.1,0.1-0.2,0.1C49.2,16.3,48.9,16.3,48.5,16.3"/>
			
				<path style="clip-path:url(#SVGID_00000179631261461428137790000005002370660699306893_);fill-rule:evenodd;clip-rule:evenodd;fill:#CA6752;" d="
				M75.8,23.7c0.2-0.2,0.2-0.4,0.4-0.5c-0.2,0.3-0.2,0.6-0.5,0.9C75.8,23.9,75.8,23.8,75.8,23.7"/>
			
				<path style="clip-path:url(#SVGID_00000179631261461428137790000005002370660699306893_);fill-rule:evenodd;clip-rule:evenodd;fill:#D8B1AE;" d="
				M57.9,17.9C57.9,17.9,57.8,17.9,57.9,17.9c-0.1-0.5-0.3-1,0-1.4C57.7,16.9,57.8,17.4,57.9,17.9"/>
			
				<path style="clip-path:url(#SVGID_00000179631261461428137790000005002370660699306893_);fill-rule:evenodd;clip-rule:evenodd;fill:#D9AFAB;" d="
				M34.3,16.2C34.3,16.2,34.3,16.2,34.3,16.2c-0.2-0.4-0.2-0.8-0.3-1.2c0.3,0.3,0.2,0.6,0.3,0.9C34.3,15.9,34.3,16.1,34.3,16.2"/>
			
				<path style="clip-path:url(#SVGID_00000179631261461428137790000005002370660699306893_);fill-rule:evenodd;clip-rule:evenodd;fill:#FAF7F7;" d="
				M34.3,25.1C34.3,25.1,34.3,25,34.3,25.1c0.5-0.1,0.9-0.1,1.3-0.1c0.1,0,0.2,0,0.2-0.1c0,0,0,0,0.1,0c0,0.1,0,0.2-0.2,0.2
				C35.2,25.1,34.8,25.1,34.3,25.1"/>
			
				<path style="clip-path:url(#SVGID_00000179631261461428137790000005002370660699306893_);fill-rule:evenodd;clip-rule:evenodd;fill:#B4AFAF;" d="
				M55.1,23.9C55.1,23.9,55.2,23.9,55.1,23.9c0,0.4-0.2,0.7-0.6,0.9C54.7,24.4,55,24.2,55.1,23.9"/>
			
				<path style="clip-path:url(#SVGID_00000179631261461428137790000005002370660699306893_);fill-rule:evenodd;clip-rule:evenodd;fill:#D4A8A4;" d="
				M40.7,15.2c-0.3,0.2-0.6,0.4-0.9,0.7c0,0,0-0.1,0-0.1C40.1,15.5,40.3,15.2,40.7,15.2"/>
			
				<path style="clip-path:url(#SVGID_00000179631261461428137790000005002370660699306893_);fill-rule:evenodd;clip-rule:evenodd;fill:#777676;" d="
				M85.6,6.3C85.6,6.3,85.5,6.3,85.6,6.3c-0.1-0.1-0.2-0.3-0.1-0.5C85.6,5.9,85.6,6.1,85.6,6.3"/>
			
				<path style="clip-path:url(#SVGID_00000179631261461428137790000005002370660699306893_);fill-rule:evenodd;clip-rule:evenodd;fill:#D3ABA8;" d="
				M55.8,24.1c0.2,0.2,0.4,0.4,0.5,0.7C56.1,24.7,55.9,24.4,55.8,24.1"/>
			
				<path style="clip-path:url(#SVGID_00000179631261461428137790000005002370660699306893_);fill-rule:evenodd;clip-rule:evenodd;fill:#DAAEAC;" d="
				M60,24.8c0.2-0.2,0.3-0.4,0.5-0.6C60.5,24.5,60.2,24.7,60,24.8"/>
			
				<path style="clip-path:url(#SVGID_00000179631261461428137790000005002370660699306893_);fill-rule:evenodd;clip-rule:evenodd;fill:#A3A0A0;" d="
				M39.9,15.8c0,0,0,0.1,0,0.1c-0.1,0.2-0.1,0.3-0.2,0.5c0,0,0,0-0.1,0C39.7,16.2,39.7,15.9,39.9,15.8"/>
			
				<path style="clip-path:url(#SVGID_00000179631261461428137790000005002370660699306893_);fill-rule:evenodd;clip-rule:evenodd;fill:#A3A0A0;" d="
				M50.3,16.4C50.2,16.4,50.2,16.4,50.3,16.4c0-0.2,0-0.4,0.2-0.6c0,0,0,0.1,0,0.1C50.4,16,50.3,16.2,50.3,16.4"/>
			
				<path style="clip-path:url(#SVGID_00000179631261461428137790000005002370660699306893_);fill-rule:evenodd;clip-rule:evenodd;fill:#E0C5C4;" d="
				M36,15.3c-0.1,0.2,0,0.4-0.1,0.6C35.8,15.6,35.8,15.4,36,15.3"/>
			
				<path style="clip-path:url(#SVGID_00000179631261461428137790000005002370660699306893_);fill-rule:evenodd;clip-rule:evenodd;fill:#E0B6B2;" d="
				M55.9,18.8c0.1,0.2,0.3,0.3,0.3,0.5C56,19.1,55.9,19,55.9,18.8"/>
			
				<path style="clip-path:url(#SVGID_00000179631261461428137790000005002370660699306893_);fill-rule:evenodd;clip-rule:evenodd;fill:#E3B0AB;" d="
				M50.4,15.9c0,0,0-0.1,0-0.1c0.1-0.1,0.2-0.3,0.4-0.3C50.7,15.6,50.6,15.7,50.4,15.9"/>
			
				<path style="clip-path:url(#SVGID_00000179631261461428137790000005002370660699306893_);fill-rule:evenodd;clip-rule:evenodd;fill:#E0B3B0;" d="
				M60.3,20.7c-0.1-0.1-0.3-0.2-0.3-0.4C60.1,20.4,60.3,20.5,60.3,20.7"/>
			
				<path style="clip-path:url(#SVGID_00000179631261461428137790000005002370660699306893_);fill-rule:evenodd;clip-rule:evenodd;fill:#010101;" d="
				M10.3,8.5c0.3-0.8,0.6-1.6,0.9-2.4c0-0.1,0.1-0.2,0.2-0.2c0.6,0,1.3,0,1.9,0c-0.3,0.8-0.6,1.6-0.9,2.4c0,0.1-0.1,0.1-0.2,0.1
				C11.6,8.5,11,8.5,10.3,8.5"/>
			
				<path style="clip-path:url(#SVGID_00000179631261461428137790000005002370660699306893_);fill-rule:evenodd;clip-rule:evenodd;fill:#010101;" d="
				M12,9.6c-0.3,0.8-0.6,1.6-0.9,2.4c0,0.1-0.1,0.1-0.2,0.1c-0.6,0-1.2,0-1.9,0c0.3-0.8,0.6-1.6,0.9-2.4c0-0.1,0.1-0.1,0.2-0.1
				C10.7,9.6,11.4,9.6,12,9.6"/>
			
				<path style="clip-path:url(#SVGID_00000179631261461428137790000005002370660699306893_);fill-rule:evenodd;clip-rule:evenodd;fill:#E48080;" d="
				M37.1,25C37.1,25,37.1,25,37.1,25c-0.1-1.3-0.1-2.7-0.1-4c0-0.5,0-1.1,0-1.6c0.1,0.1,0,0.3,0,0.4C37.1,21.5,37.1,23.3,37.1,25"/>
			
				<path style="clip-path:url(#SVGID_00000179631261461428137790000005002370660699306893_);fill-rule:evenodd;clip-rule:evenodd;fill:#010101;" d="
				M34.9,5.9c-0.3,0.9-0.6,1.7-0.9,2.5c0,0.1-0.1,0.1-0.2,0.1c-0.7,0-1.5,0-2.2,0c-0.1,0-0.2,0-0.1-0.2c0.3-0.8,0.5-1.5,0.8-2.3
				c0-0.1,0.1-0.1,0.2-0.1C33.3,5.9,34.1,5.9,34.9,5.9"/>
			
				<path style="clip-path:url(#SVGID_00000179631261461428137790000005002370660699306893_);fill-rule:evenodd;clip-rule:evenodd;fill:#010101;" d="
				M41.9,8.6c0.2-0.7,0.5-1.4,0.7-2.1c0.2-0.6,0.2-0.6,0.8-0.6h2c-0.2,0.7-0.5,1.4-0.7,2.1c-0.1,0.3-0.4,0.6-0.8,0.6H41.9z"/>
			
				<path style="clip-path:url(#SVGID_00000179631261461428137790000005002370660699306893_);fill-rule:evenodd;clip-rule:evenodd;fill:#010101;" d="
				M61.6,8.5c0.3-0.9,0.6-1.7,0.9-2.5c0-0.1,0.1-0.1,0.2-0.1c0.7,0,1.5,0,2.2,0c0.2,0,0.2,0.1,0.1,0.2c-0.3,0.8-0.5,1.5-0.8,2.3
				c0,0.1,0,0.2-0.2,0.2C63.3,8.5,62.5,8.5,61.6,8.5"/>
			
				<path style="clip-path:url(#SVGID_00000179631261461428137790000005002370660699306893_);fill-rule:evenodd;clip-rule:evenodd;fill:#010202;" d="
				M19.6,9.9c0.7-0.9,1.3-1.8,1.9-2.7c0,0,0.1,0,0.1,0c0,0.8,0,1.7,0,2.5c0,0.2-0.1,0.2-0.2,0.2C20.9,9.9,20.3,9.9,19.6,9.9"/>
			
				<path style="clip-path:url(#SVGID_00000179631261461428137790000005002370660699306893_);fill-rule:evenodd;clip-rule:evenodd;fill:#010202;" d="
				M71.4,9.9c0.7-0.9,1.3-1.8,2-2.8c0,0.9,0,1.8,0.1,2.6c0,0.1,0,0.2-0.2,0.2C72.7,9.9,72.1,9.9,71.4,9.9"/>
			
				<path style="clip-path:url(#SVGID_00000179631261461428137790000005002370660699306893_);fill-rule:evenodd;clip-rule:evenodd;fill:#010101;" d="
				M86.5,17.8c-0.1,0.3-0.2,0.6-0.3,0.9c0,0.5-0.2,0.9-0.4,1.3c-0.1,0.3-0.3,0.6-0.2,1c0,0.1,0,0.2-0.1,0.1c-0.4,0-0.7,0.2-1,0.3
				c-0.1,0-0.2-0.1-0.3-0.1c-0.2-0.1-0.4-0.1-0.5,0.1c-0.1,0.1-0.3,0.2-0.4,0c-0.1-0.1-0.2-0.1-0.3,0c-0.1,0.1-0.3,0.2-0.4,0.3
				c-0.1,0-0.1,0.1-0.2,0c0.3-0.7,0.6-1.4,1-2c0.4-0.7,0.9-1.4,1.3-2c0.1-0.2,0-0.3,0-0.5c-0.1-0.1-0.2,0-0.2-0.1
				c0.1-0.3,0.3-0.6,0.6-0.7C85.5,16.9,85.9,17.4,86.5,17.8"/>
			
				<path style="clip-path:url(#SVGID_00000179631261461428137790000005002370660699306893_);fill-rule:evenodd;clip-rule:evenodd;fill:#020303;" d="
				M86.4,9.8c0.6,0.2,0.9,0.6,1,1.2c0.2,1,0,1.9-0.7,2.6c-0.3,0.3-0.6,0.6-1,0.7c-0.6,0.1-1.1-0.1-1.4-0.6c-0.6-1-0.3-2.3,0.5-3.2
				c0.2-0.2,0.4-0.4,0.6-0.5C85.7,9.8,86.1,9.7,86.4,9.8"/>
			
				<path style="clip-path:url(#SVGID_00000179631261461428137790000005002370660699306893_);fill-rule:evenodd;clip-rule:evenodd;fill:#010101;" d="
				M91.7,12.9c0.3,0.1,0.6,0.2,1,0.3c0.2,0,0.2,0.1,0.2,0.3c-1.1,1.6-2.2,3.2-3.3,4.8c-0.2,0.3-0.8,0.5-1.2,0.3
				c-0.1-0.1,0-0.1,0-0.2c0.6-1.1,1.3-2.2,1.9-3.3c0.4-0.6,0.7-1.2,1.1-1.9C91.5,13.1,91.5,12.9,91.7,12.9"/>
			
				<path style="clip-path:url(#SVGID_00000179631261461428137790000005002370660699306893_);fill-rule:evenodd;clip-rule:evenodd;fill:#010202;" d="
				M85.9,15.3c-0.3,0-0.5,0-0.8,0c-0.1,0-0.2-0.1-0.3-0.1c-0.1-0.1-0.1-0.1-0.1-0.2c0-0.1,0.1-0.1,0.2-0.1c0.5,0,0.9,0,1.4-0.2
				c0.7-0.2,1.3-0.5,1.8-1c0.5-0.5,0.9-1,1.2-1.6c0.1-0.2,0.2-0.2,0.3-0.1c0.4,0.2,0.7,0.4,1.1,0.6c0.2,0.1,0.1,0.2,0.1,0.3
				c-0.4,0.6-0.9,1.1-1.6,1.5c-0.8,0.5-1.7,0.8-2.7,0.9C86.3,15.3,86.1,15.3,85.9,15.3C85.9,15.3,85.9,15.3,85.9,15.3"/>
			
				<path style="clip-path:url(#SVGID_00000179631261461428137790000005002370660699306893_);fill-rule:evenodd;clip-rule:evenodd;fill:#DAB556;" d="
				M85.1,16.4c-0.2,0.2-0.4,0.4-0.6,0.7c0,0.1-0.1,0.2-0.1,0.3c-0.1,0.1-0.2,0.2-0.3,0.4c-0.1-0.2-0.3,0-0.4-0.1
				c0.2-0.3,0.3-0.6,0.5-0.9c0.1-0.1,0.1-0.2,0.1-0.4c0.2-0.1,0.3-0.3,0.4-0.4C84.9,16.1,85,16.2,85.1,16.4"/>
			
				<path style="clip-path:url(#SVGID_00000179631261461428137790000005002370660699306893_);fill-rule:evenodd;clip-rule:evenodd;fill:#FCFCFD;" d="
				M86.4,9.8c-0.4-0.1-0.7,0-1,0.1C85.7,9.7,86.1,9.6,86.4,9.8"/>
			
				<path style="clip-path:url(#SVGID_00000179631261461428137790000005002370660699306893_);fill-rule:evenodd;clip-rule:evenodd;fill:#09090A;" d="
				M42.3,23.9c-0.1,0-0.2,0.1-0.4,0c-0.2-0.2-0.2-0.4-0.2-0.6c0-2.1,0-4.3,0-6.4c0-0.2,0-0.5,0.3-0.6c0.1,0,0.2,0,0.3,0
				c0.2,0.1,0.3,0.3,0.3,0.5c0,2.2,0,4.4,0,6.6C42.5,23.6,42.5,23.8,42.3,23.9"/>
			
				<path style="clip-path:url(#SVGID_00000179631261461428137790000005002370660699306893_);fill-rule:evenodd;clip-rule:evenodd;fill:#EA9D9C;" d="
				M41.9,16.3c-0.1,0.1-0.2,0.3-0.2,0.5c0,2.2,0,4.4,0,6.6c0,0.2,0.1,0.3,0.2,0.5c-0.2-0.1-0.3-0.2-0.3-0.4c0-2.2,0-4.5,0-6.7
				C41.6,16.5,41.7,16.3,41.9,16.3"/>
			
				<path style="clip-path:url(#SVGID_00000179631261461428137790000005002370660699306893_);fill-rule:evenodd;clip-rule:evenodd;fill:#EA9D9D;" d="
				M42.3,23.9c0.1-0.1,0.2-0.3,0.2-0.5c0-2.2,0-4.4,0-6.6c0-0.2,0-0.3-0.2-0.5c0.3,0,0.3,0.3,0.3,0.5c0,0.9,0,1.9,0,2.8
				c0,1.3,0,2.6,0,3.9C42.6,23.6,42.6,23.8,42.3,23.9"/>
			
				<path style="clip-path:url(#SVGID_00000179631261461428137790000005002370660699306893_);fill-rule:evenodd;clip-rule:evenodd;fill:#09090A;" d="
				M52.5,16.3c0.1,0,0.2,0,0.3,0c0.2,0.1,0.3,0.3,0.3,0.5c0,2.2,0,4.4,0,6.6c0,0.2,0,0.4-0.3,0.5c-0.1,0-0.2,0.1-0.4,0
				c-0.2-0.2-0.2-0.4-0.2-0.6c0-2.1,0-4.3,0-6.4C52.3,16.7,52.2,16.4,52.5,16.3"/>
			
				<path style="clip-path:url(#SVGID_00000179631261461428137790000005002370660699306893_);fill-rule:evenodd;clip-rule:evenodd;fill:#EA9D9C;" d="
				M52.5,16.3c-0.1,0.1-0.2,0.3-0.2,0.5c0,2.2,0,4.4,0,6.6c0,0.2,0.1,0.3,0.2,0.5c-0.2-0.1-0.3-0.2-0.3-0.4c0-2.2,0-4.5,0-6.7
				C52.2,16.5,52.2,16.3,52.5,16.3"/>
			
				<path style="clip-path:url(#SVGID_00000179631261461428137790000005002370660699306893_);fill-rule:evenodd;clip-rule:evenodd;fill:#EA9D9D;" d="
				M52.9,23.9c0.1-0.1,0.2-0.3,0.2-0.5c0-2.2,0-4.4,0-6.6c0-0.2,0-0.3-0.2-0.5c0.3,0,0.3,0.3,0.3,0.5c0,0.9,0,1.9,0,2.8
				c0,1.3,0,2.6,0,3.8C53.1,23.6,53.2,23.8,52.9,23.9"/>
			
				<path style="clip-path:url(#SVGID_00000179631261461428137790000005002370660699306893_);fill-rule:evenodd;clip-rule:evenodd;fill:#09090A;" d="
				M69.4,23.9c-0.1,0-0.2,0.1-0.4,0c-0.2-0.2-0.2-0.4-0.2-0.6c0-2.1,0-4.3,0-6.4c0-0.2,0-0.5,0.3-0.6c0.1,0,0.2,0,0.3,0
				c0.2,0.1,0.2,0.3,0.2,0.5c0,2.2,0,4.4,0,6.6C69.7,23.6,69.6,23.8,69.4,23.9"/>
			
				<path style="clip-path:url(#SVGID_00000179631261461428137790000005002370660699306893_);fill-rule:evenodd;clip-rule:evenodd;fill:#EA9D9C;" d="
				M69.1,16.3c-0.1,0.1-0.2,0.3-0.2,0.5c0,2.2,0,4.4,0,6.6c0,0.2,0.1,0.3,0.2,0.5c-0.2-0.1-0.3-0.2-0.3-0.4c0-2.2,0-4.5,0-6.7
				C68.8,16.5,68.8,16.3,69.1,16.3"/>
			
				<path style="clip-path:url(#SVGID_00000179631261461428137790000005002370660699306893_);fill-rule:evenodd;clip-rule:evenodd;fill:#EA9D9D;" d="
				M69.4,23.9c0.1-0.1,0.2-0.3,0.2-0.5c0-2.2,0-4.4,0-6.6c0-0.2,0-0.3-0.2-0.5c0.3,0,0.3,0.3,0.3,0.5c0,1,0,1.9,0,2.9
				c0,1.2,0,2.5,0,3.7C69.7,23.6,69.7,23.8,69.4,23.9"/>
			
				<path style="clip-path:url(#SVGID_00000179631261461428137790000005002370660699306893_);fill-rule:evenodd;clip-rule:evenodd;fill:#010202;" d="
				M75.7,29.4c-0.3-0.8-0.3-1.6-0.2-2.5c0.4-1,0.8-2,1.8-2.6c0.9-0.6,2-0.2,2.4,0.7c0.4,0.9,0.3,1.8,0,2.7c-0.3,0.9-0.8,1.7-1.6,2.2
				c-0.6,0.4-1.5,0.4-2-0.2C75.9,29.7,75.8,29.6,75.7,29.4"/>
			
				<path style="clip-path:url(#SVGID_00000179631261461428137790000005002370660699306893_);fill-rule:evenodd;clip-rule:evenodd;fill:#010101;" d="
				M80.2,32.8c-0.2-0.1-0.5-0.2-0.6-0.4c-0.1-0.1,0-0.2,0-0.3c0.5-0.9,0.9-1.7,1.4-2.6c0.4-0.7,0.8-1.5,1.2-2.2
				c0.1-0.2,0.2-0.2,0.4-0.1c0.3,0.2,0.5,0.3,0.8,0.4c0.2,0.1,0.1,0.2,0,0.3c-0.4,0.7-0.8,1.3-1.3,2c-0.6,0.9-1.2,1.8-1.7,2.7
				C80.4,32.7,80.3,32.8,80.2,32.8"/>
			
				<path style="clip-path:url(#SVGID_00000179631261461428137790000005002370660699306893_);fill-rule:evenodd;clip-rule:evenodd;fill:#010201;" d="
				M79.7,21.7c-0.3,0-0.6,0-0.9,0c-0.1,0-0.2,0-0.2-0.1c0-0.1,0-0.1,0.1-0.2c0.5-0.3,0.7-0.8,0.8-1.3c0.1-0.3,0.3-0.5,0.5-0.6
				c0.3-0.2,0.2-0.3,0-0.5c-0.1-0.1-0.2-0.1-0.3-0.2c-0.1,0-0.2,0-0.2-0.1c0-0.1,0.1-0.1,0.2-0.2c0.6-0.3,1.2-0.5,1.9-0.4
				c0.3,0.1,0.7,0.1,1,0c0.1,0,0.2-0.1,0.2,0c-0.5,0.7-1,1.4-1.5,2.1C80.8,20.8,80.3,21.3,79.7,21.7"/>
			
				<path style="clip-path:url(#SVGID_00000179631261461428137790000005002370660699306893_);fill-rule:evenodd;clip-rule:evenodd;fill:#020202;" d="
				M83.7,17.6c0.1,0,0.1,0,0.1,0c0.2-0.2,0.3,0,0.3,0.2c-0.9,1.3-1.7,2.7-2.4,4.1c-0.3,0.7-0.6,1.4-1,2.1c0,0.1,0,0.2-0.1,0.2
				c-0.1,0-0.1-0.1-0.1-0.2c-0.3-0.5-0.6-0.9-1.2-0.9c-0.2,0-0.1-0.2,0-0.2c0.3-0.3,0.6-0.6,1-1c1.2-1.2,2.1-2.6,3.1-3.9
				C83.6,17.8,83.7,17.7,83.7,17.6"/>
			
				<path style="clip-path:url(#SVGID_00000179631261461428137790000005002370660699306893_);fill-rule:evenodd;clip-rule:evenodd;fill:#DCB551;" d="
				M82.4,21.7c0.2-0.2,0.5-0.3,0.7-0.5c0.1,0,0.2-0.2,0.2,0c0,0.3,0.2,0.2,0.3,0.1c0.3-0.2,0.5-0.2,0.8,0.1
				c-0.9,0.6-1.5,1.6-1.9,2.6c0,0.1-0.1,0.1-0.1,0.2c0,0,0,0-0.1,0.1c0-0.4,0-0.8,0-1.1c0-0.4,0-0.7,0.2-1.1c0-0.1,0.1-0.2,0-0.2
				c-0.1,0-0.1,0-0.2,0.1c-0.1,0.1-0.1,0.2-0.2,0.3C82.2,22.1,82.2,21.9,82.4,21.7"/>
			
				<path style="clip-path:url(#SVGID_00000179631261461428137790000005002370660699306893_);fill-rule:evenodd;clip-rule:evenodd;fill:#DCB853;" d="
				M76.9,30.6c-0.7,0-1.2,0.4-1.8,0.8c0.1-0.6,0.5-0.9,0.9-1.3C76.3,30.4,76.5,30.5,76.9,30.6"/>
			
				<path style="clip-path:url(#SVGID_00000179631261461428137790000005002370660699306893_);fill-rule:evenodd;clip-rule:evenodd;fill:#5D5545;" d="
				M84.5,17.4c-0.3-0.2,0-0.2,0.1-0.3c0,0.1,0.2,0,0.2,0.1C84.5,17.1,84.6,17.3,84.5,17.4"/>
			
				<path style="clip-path:url(#SVGID_00000179631261461428137790000005002370660699306893_);fill-rule:evenodd;clip-rule:evenodd;fill:#FFFEFE;" d="
				M75.2,16.8C75.2,16.8,75.2,16.8,75.2,16.8c0,0.9,0,1.8,0,2.7c0,0,0,0,0,0C75,19.4,75,19.3,75,19.2c0-0.7,0-1.3,0-2
				C75,17.1,75,16.9,75.2,16.8"/>
			
				<path style="clip-path:url(#SVGID_00000179631261461428137790000005002370660699306893_);fill-rule:evenodd;clip-rule:evenodd;fill:#D98374;" d="
				M86.8,19.3c0.1,0.1,0.2,0.2,0.1,0.3c-0.1,0.3,0,0.6-0.1,1c0,0.1,0,0.2-0.1,0.2c-0.1,0-0.2-0.1-0.2-0.2c0.1,0,0.2,0.2,0.2,0
				c0-0.3,0-0.6,0.1-0.9C86.9,19.5,86.7,19.4,86.8,19.3"/>
			
				<path style="clip-path:url(#SVGID_00000179631261461428137790000005002370660699306893_);fill-rule:evenodd;clip-rule:evenodd;fill:#D98374;" d="
				M86.6,20.6c-0.1-0.1-0.2-0.3-0.4-0.4C86.6,20.2,86.6,20.4,86.6,20.6"/>
			
				<path style="clip-path:url(#SVGID_00000179631261461428137790000005002370660699306893_);fill-rule:evenodd;clip-rule:evenodd;fill:#F7EED8;" d="
				M78.3,21.9c-0.1,0-0.2,0-0.2-0.1c0-0.1,0.1-0.2,0.2-0.2c0.1,0,0.2,0,0.2,0.1C78.5,21.8,78.4,21.9,78.3,21.9"/>
			
				<path style="clip-path:url(#SVGID_00000179631261461428137790000005002370660699306893_);fill-rule:evenodd;clip-rule:evenodd;fill:#000101;" d="
				M75.2,16.8c0,0.9,0,1.8,0,2.7c-0.1,0.1-0.1,0.3-0.2,0.3c-0.1,0.1-0.3,0.2-0.4,0.1c-0.1-0.1-0.1-0.2-0.1-0.4c0-1,0-1.9,0-2.9
				c0-0.4,0.1-0.4,0.4-0.3C75,16.5,75.1,16.7,75.2,16.8"/>
			
				<path style="clip-path:url(#SVGID_00000179631261461428137790000005002370660699306893_);fill-rule:evenodd;clip-rule:evenodd;fill:#FCFCFD;" d="
				M86.8,10.2c0,0-0.1,0-0.1,0.1c-0.4,0.4-0.7,0.9-0.8,1.5c0,0.1-0.1,0.2-0.2,0.1c-0.3-0.1-0.6-0.2-0.9-0.2c-0.1,0-0.2-0.1-0.1-0.3
				c0.2-0.7,0.6-1.1,1.3-1.4c0.2-0.1,0.5-0.1,0.7,0C86.7,10.1,86.7,10.1,86.8,10.2"/>
			
				<path style="clip-path:url(#SVGID_00000179631261461428137790000005002370660699306893_);fill-rule:evenodd;clip-rule:evenodd;fill:#EBEAEB;" d="
				M85.1,13.8c0.3-0.1,0.6-0.2,0.8-0.3c0.2-0.1,0.3,0,0.4,0.2c0.1,0.2-0.1,0.2-0.2,0.2C85.8,14,85.4,14.1,85.1,13.8"/>
			
				<path style="clip-path:url(#SVGID_00000179631261461428137790000005002370660699306893_);fill-rule:evenodd;clip-rule:evenodd;fill:#CBCACB;" d="
				M85.8,12.4c-0.4,0-0.8,0-1.2-0.1c-0.1,0-0.1,0-0.1-0.1c0,0,0-0.1,0.1-0.1C85,12.3,85.4,12.2,85.8,12.4
				C85.8,12.3,85.8,12.4,85.8,12.4"/>
			
				<path style="clip-path:url(#SVGID_00000179631261461428137790000005002370660699306893_);fill-rule:evenodd;clip-rule:evenodd;fill:#D9D9D9;" d="
				M85.7,13.1c-0.3,0.2-0.6,0.2-0.8,0.3c-0.1,0-0.1,0-0.2-0.1c0-0.1,0.1-0.1,0.1-0.1C85,13.1,85.3,13.1,85.7,13.1"/>
			
				<path style="clip-path:url(#SVGID_00000179631261461428137790000005002370660699306893_);fill-rule:evenodd;clip-rule:evenodd;fill:#FFFFFF;" d="
				M79.7,26.5c-0.1,1.3-0.5,2.3-1.4,3c-0.2,0.2-0.3,0.2-0.4-0.1c-0.4-0.6-0.5-1.3-0.4-2c0.1-0.8,0.4-1.6,1-2.2
				c0.2-0.2,0.4-0.5,0.6-0.5c0.2,0.1,0.3,0.5,0.4,0.7C79.7,25.8,79.7,26.2,79.7,26.5"/>
			
				<path style="clip-path:url(#SVGID_00000179631261461428137790000005002370660699306893_);fill-rule:evenodd;clip-rule:evenodd;fill:#FCFCFC;" d="
				M77,27.7c-0.4-0.1-0.9-0.1-1.3-0.2c-0.2,0-0.2-0.1-0.1-0.2c0.1-0.2,0.1-0.5,0.2-0.7c0-0.1,0.1-0.2,0.2-0.1
				c0.4,0.1,0.8,0.3,1.2,0.3c0.5,0.1,0.2,0.4,0.2,0.6C77.4,27.8,77.2,27.7,77,27.7"/>
			
				<path style="clip-path:url(#SVGID_00000179631261461428137790000005002370660699306893_);fill-rule:evenodd;clip-rule:evenodd;fill:#DBD9D9;" d="
				M76.2,28.3c0.3,0,0.7,0,1,0.1c0.1,0,0.2,0,0.2,0.1c0,0.1-0.1,0.1-0.2,0.1c-0.5,0-0.9,0-1.4,0.1c-0.1,0-0.3,0-0.2-0.2
				c0-0.2,0.1-0.1,0.2-0.1C75.9,28.3,76,28.3,76.2,28.3"/>
		</g>
	</g>
</g>
</svg>
