<svg id="Capa_1" data-name="Capa 1" xmlns="http://www.w3.org/2000/svg" viewBox="0 0 354.07 95.75"><defs><style>.cls-1{fill:none;}.cls-2{fill:#fff;}.cls-3{fill:#b7c72c;}</style></defs><title>logo</title><path class="cls-1" d="M389.72,399a3.72,3.72,0,0,0,.2-1.31,2.59,2.59,0,0,0-.21-1.07,1.82,1.82,0,0,0-.71-.78,2.59,2.59,0,0,0-1-.39,7.32,7.32,0,0,0-1.32-.11H384.5v5.31h1.9a7.13,7.13,0,0,0,1.56-.16,2.49,2.49,0,0,0,1.13-.58A2.57,2.57,0,0,0,389.72,399Z" transform="translate(-280.27 -312.32)"/><path class="cls-1" d="M614.57,395a4.15,4.15,0,0,0-3.38,1.49,6.51,6.51,0,0,0-1.22,4.24,6.35,6.35,0,0,0,1.25,4.24,4.54,4.54,0,0,0,6.69,0,6.4,6.4,0,0,0,1.24-4.24,6.51,6.51,0,0,0-1.23-4.24A4.13,4.13,0,0,0,614.57,395Z" transform="translate(-280.27 -312.32)"/><path class="cls-1" d="M451.37,395a4.13,4.13,0,0,0-3.37,1.49,6.51,6.51,0,0,0-1.23,4.24A6.4,6.4,0,0,0,448,405a4.54,4.54,0,0,0,6.69,0,6.4,6.4,0,0,0,1.25-4.24,6.51,6.51,0,0,0-1.24-4.24A4.1,4.1,0,0,0,451.37,395Z" transform="translate(-280.27 -312.32)"/><path class="cls-1" d="M506.68,340.9a7.71,7.71,0,0,0,2.62-5.81,7.41,7.41,0,0,0-2.62-5.71q-2.61-2.36-8.16-2.35H486.06v16.33h12.46Q504.07,343.36,506.68,340.9Z" transform="translate(-280.27 -312.32)"/><path class="cls-1" d="M450.94,340.9a7.73,7.73,0,0,0,2.61-5.81,7.44,7.44,0,0,0-2.61-5.71q-2.62-2.36-8.17-2.35H430.42v16.33h12.35Q448.32,343.36,450.94,340.9Z" transform="translate(-280.27 -312.32)"/><path class="cls-1" d="M333.31,395a4.14,4.14,0,0,0-3.37,1.49,6.51,6.51,0,0,0-1.23,4.24A6.4,6.4,0,0,0,330,405a4.55,4.55,0,0,0,6.7,0,6.4,6.4,0,0,0,1.24-4.24,6.51,6.51,0,0,0-1.23-4.24A4.13,4.13,0,0,0,333.31,395Z" transform="translate(-280.27 -312.32)"/><path class="cls-1" d="M559.24,399a3.72,3.72,0,0,0,.2-1.31,2.59,2.59,0,0,0-.21-1.07,1.82,1.82,0,0,0-.71-.78,2.59,2.59,0,0,0-1-.39,7.32,7.32,0,0,0-1.32-.11H554v5.31h1.9a7.13,7.13,0,0,0,1.56-.16,2.49,2.49,0,0,0,1.13-.58A2.57,2.57,0,0,0,559.24,399Z" transform="translate(-280.27 -312.32)"/><polygon class="cls-1" points="336.18 66.3 339.85 66.3 338.01 62.17 336.18 66.3"/><polygon class="cls-2" points="256.59 73.44 303.7 73.44 303.7 58.89 271.14 58.89 271.14 44.13 294.91 44.13 294.91 29.47 271.14 29.47 271.14 14.71 303.7 14.71 303.7 0.16 256.59 0.16 256.59 73.44"/><polygon class="cls-2" points="131.7 58.89 102.17 58.89 102.17 0.16 87.62 0.16 87.62 73.44 131.7 73.44 131.7 58.89"/><path class="cls-2" d="M514.75,385.76h17.79L511,355.61a21.59,21.59,0,0,0,9.32-8.11,22.36,22.36,0,0,0,3.55-12.41A21.23,21.23,0,0,0,522,326.3a23.76,23.76,0,0,0-4.92-7.18,23.14,23.14,0,0,0-7.17-4.86,21.45,21.45,0,0,0-8.69-1.78H471.61v73.28h14.45V357.81h8.79ZM486.06,327h12.46q5.55,0,8.16,2.35a7.41,7.41,0,0,1,2.62,5.71,7.71,7.71,0,0,1-2.62,5.81q-2.61,2.46-8.16,2.46H486.06Z" transform="translate(-280.27 -312.32)"/><path class="cls-2" d="M430.42,357.81h15.07a21.79,21.79,0,0,0,8.74-1.78,23.35,23.35,0,0,0,7.23-4.82,22.16,22.16,0,0,0,4.87-7.22,22.63,22.63,0,0,0,1.78-8.9,21.24,21.24,0,0,0-1.84-8.79,23.76,23.76,0,0,0-4.92-7.18,23.14,23.14,0,0,0-7.17-4.86,21.45,21.45,0,0,0-8.69-1.78H415.86v73.28h14.56Zm0-30.78h12.35q5.55,0,8.17,2.35a7.44,7.44,0,0,1,2.61,5.71,7.73,7.73,0,0,1-2.61,5.81q-2.62,2.46-8.17,2.46H430.42Z" transform="translate(-280.27 -312.32)"/><path class="cls-2" d="M619,367.41h-1.5l-7.92,18h3.87c.2-.49.44-1,.7-1.61s.51-1.14.73-1.65h6.8l1.45,3.26H627Zm-2.57,11.2,1.83-4.12,1.84,4.12Z" transform="translate(-280.27 -312.32)"/><path class="cls-2" d="M602.67,382.31a4.93,4.93,0,0,0,.46-2.12,5.12,5.12,0,0,0-.27-1.69,3.94,3.94,0,0,0-.9-1.45,7.24,7.24,0,0,0-1.68-1.27,18.55,18.55,0,0,0-2.57-1.19c-.36-.12-.7-.24-1-.38a6.26,6.26,0,0,1-.86-.45,2.31,2.31,0,0,1-.58-.53,1,1,0,0,1-.22-.65,1.38,1.38,0,0,1,.6-1.21,2.88,2.88,0,0,1,1.67-.42,3.52,3.52,0,0,1,1.15.2,7.7,7.7,0,0,1,1,.44,10.13,10.13,0,0,1,1,.61l2.19-2.75a6,6,0,0,0-1.08-.75,8.85,8.85,0,0,0-1.39-.65,11.42,11.42,0,0,0-1.51-.46,6.55,6.55,0,0,0-1.47-.18,6.7,6.7,0,0,0-2.33.39,5.49,5.49,0,0,0-1.81,1.1,5,5,0,0,0-1.16,1.65,5.24,5.24,0,0,0-.4,2.05,4.36,4.36,0,0,0,1.41,3.34,6.92,6.92,0,0,0,1.59,1.11,20.49,20.49,0,0,0,2,.88c.61.24,1.12.46,1.53.67a5.65,5.65,0,0,1,1,.6,2.28,2.28,0,0,1,.49.52.94.94,0,0,1,.14.45,1.66,1.66,0,0,1-.23.89,1.78,1.78,0,0,1-.59.57,2.62,2.62,0,0,1-.79.32,3.67,3.67,0,0,1-.86.1,3.25,3.25,0,0,1-1.07-.2,6.54,6.54,0,0,1-1.07-.5,7.2,7.2,0,0,1-.91-.61,3.37,3.37,0,0,1-.57-.55l-2.65,2.45c.14.15.38.4.74.74a7.87,7.87,0,0,0,1.22.94h0a8.17,8.17,0,0,0,2.06.94,7.79,7.79,0,0,0,2.27.33,6.73,6.73,0,0,0,2.4-.42,6,6,0,0,0,1.91-1.14A5.21,5.21,0,0,0,602.67,382.31Z" transform="translate(-280.27 -312.32)"/><path class="cls-2" d="M628.33,384.94a2,2,0,0,0,.69.47,2,2,0,0,0,.85.18,2.14,2.14,0,0,0,2.19-2.16,2.18,2.18,0,0,0-.62-1.56,2.22,2.22,0,0,0-3.1,0,2.24,2.24,0,0,0-.47,2.39A2,2,0,0,0,628.33,384.94Z" transform="translate(-280.27 -312.32)"/><path class="cls-2" d="M609.12,383.43a2.15,2.15,0,0,0-.63-1.56,2.19,2.19,0,0,0-3.73,1.56,2.16,2.16,0,0,0,.17.83,2.12,2.12,0,0,0,.45.68,2.17,2.17,0,0,0,.69.47,2.07,2.07,0,0,0,.86.18,2.15,2.15,0,0,0,2.19-2.16Z" transform="translate(-280.27 -312.32)"/><polygon class="cls-2" points="88.48 83.01 93.53 83.01 93.53 95.46 95.42 95.46 95.42 83.01 100.46 83.01 100.46 81.34 88.48 81.34 88.48 83.01"/><path class="cls-2" d="M391.12,400.06a4.18,4.18,0,0,0,.76-2.56,3.61,3.61,0,0,0-.43-1.86,3.5,3.5,0,0,0-1.2-1.22,4.56,4.56,0,0,0-1.53-.59,11.57,11.57,0,0,0-2.14-.17h-4v14.12h1.88v-5.61h2.65l4.72,5.61h2.44L389,401.61A4.77,4.77,0,0,0,391.12,400.06Zm-4.72.54h-1.9v-5.31h2.22a7.32,7.32,0,0,1,1.32.11,2.59,2.59,0,0,1,1,.39,1.82,1.82,0,0,1,.71.78,2.59,2.59,0,0,1,.21,1.07,3.72,3.72,0,0,1-.2,1.31,2.57,2.57,0,0,1-.63.91,2.49,2.49,0,0,1-1.13.58A7.13,7.13,0,0,1,386.4,400.6Z" transform="translate(-280.27 -312.32)"/><path class="cls-2" d="M619.33,395.29a5.6,5.6,0,0,0-2.05-1.42,7.09,7.09,0,0,0-2.72-.5,7.37,7.37,0,0,0-2.7.49,5.38,5.38,0,0,0-2.07,1.43,6.56,6.56,0,0,0-1.33,2.34,11,11,0,0,0,0,6.22,6.58,6.58,0,0,0,1.32,2.3,5.7,5.7,0,0,0,2.07,1.43,7.11,7.11,0,0,0,2.71.49,7.2,7.2,0,0,0,2.71-.48,5.58,5.58,0,0,0,2.06-1.44,6.44,6.44,0,0,0,1.31-2.3,9.47,9.47,0,0,0,.47-3.12,9.66,9.66,0,0,0-.46-3.12A6.21,6.21,0,0,0,619.33,395.29ZM617.91,405a4.54,4.54,0,0,1-6.69,0,6.35,6.35,0,0,1-1.25-4.24,6.51,6.51,0,0,1,1.22-4.24,4.54,4.54,0,0,1,6.73,0,6.51,6.51,0,0,1,1.23,4.24A6.4,6.4,0,0,1,617.91,405Z" transform="translate(-280.27 -312.32)"/><path class="cls-2" d="M416.45,393.41a8,8,0,0,0-2.84.48,6,6,0,0,0-2.17,1.41,6.28,6.28,0,0,0-1.43,2.32,10.3,10.3,0,0,0,0,6.34,6.21,6.21,0,0,0,1.43,2.29,5.72,5.72,0,0,0,2.18,1.35,8.53,8.53,0,0,0,2.8.43,7.73,7.73,0,0,0,1.49-.13,10,10,0,0,0,1.25-.3,10.31,10.31,0,0,0,1.11-.42l.94-.43v-2.19h-.13a7.46,7.46,0,0,1-2.22,1.38,6.86,6.86,0,0,1-2.54.46,5.34,5.34,0,0,1-1.87-.33,4.24,4.24,0,0,1-1.55-1,5.11,5.11,0,0,1-1-1.73,7.52,7.52,0,0,1-.4-2.56,7.86,7.86,0,0,1,.37-2.49,4.8,4.8,0,0,1,1-1.79,4.12,4.12,0,0,1,1.53-1.08,5.3,5.3,0,0,1,1.92-.34,6.88,6.88,0,0,1,2.46.44,8.5,8.5,0,0,1,2.31,1.41h.14v-2.24a11.82,11.82,0,0,0-2.52-1A9.2,9.2,0,0,0,416.45,393.41Z" transform="translate(-280.27 -312.32)"/><path class="cls-2" d="M404.86,402.24a8.25,8.25,0,0,1-.15,1.72,3.55,3.55,0,0,1-.53,1.24,2.51,2.51,0,0,1-1.13.93,4.28,4.28,0,0,1-1.73.31,4.18,4.18,0,0,1-1.71-.31,2.62,2.62,0,0,1-1.14-.93A3.59,3.59,0,0,1,398,404a7.83,7.83,0,0,1-.16-1.81v-8.53h-1.88v8.45a9.11,9.11,0,0,0,.34,2.7,4.5,4.5,0,0,0,1.1,1.88,4.33,4.33,0,0,0,1.66,1,6.76,6.76,0,0,0,2.31.35,7.12,7.12,0,0,0,2.28-.33,4.45,4.45,0,0,0,1.71-1.05,4.34,4.34,0,0,0,1.1-1.9,9.7,9.7,0,0,0,.34-2.68v-8.45h-1.89Z" transform="translate(-280.27 -312.32)"/><path class="cls-2" d="M320.12,393.41a8,8,0,0,0-2.83.48,6,6,0,0,0-2.18,1.41,6.26,6.26,0,0,0-1.42,2.32,9.12,9.12,0,0,0-.49,3.12,9.3,9.3,0,0,0,.51,3.22,6.07,6.07,0,0,0,1.42,2.29,5.76,5.76,0,0,0,2.19,1.35,8.42,8.42,0,0,0,2.79.43,7.65,7.65,0,0,0,1.49-.13,10.59,10.59,0,0,0,1.26-.3,10.9,10.9,0,0,0,1.1-.42l1-.43v-2.19h-.14a7.41,7.41,0,0,1-2.21,1.38,6.9,6.9,0,0,1-2.54.46,5.39,5.39,0,0,1-1.88-.33,4.2,4.2,0,0,1-1.54-1,5,5,0,0,1-1-1.73,7.28,7.28,0,0,1-.4-2.56,7.87,7.87,0,0,1,.36-2.49,5.09,5.09,0,0,1,1-1.79,4.2,4.2,0,0,1,1.53-1.08A5.31,5.31,0,0,1,320,395a6.83,6.83,0,0,1,2.45.44,8.21,8.21,0,0,1,2.31,1.41h.15v-2.24a12,12,0,0,0-2.52-1A9.28,9.28,0,0,0,320.12,393.41Z" transform="translate(-280.27 -312.32)"/><path class="cls-2" d="M364.45,400.13q-.78-.19-1.89-.39c-.75-.13-1.32-.23-1.73-.32a3.1,3.1,0,0,1-1.6-.77,2,2,0,0,1-.45-1.38,1.89,1.89,0,0,1,.91-1.61,4.28,4.28,0,0,1,2.42-.62,8.25,8.25,0,0,1,2.69.45,6.52,6.52,0,0,1,2.12,1.13h.13V394.4a12.52,12.52,0,0,0-4.93-1,6.15,6.15,0,0,0-3.8,1.13,3.51,3.51,0,0,0-1.5,2.91,3.54,3.54,0,0,0,.9,2.51,5.19,5.19,0,0,0,2.78,1.35c.62.13,1.2.23,1.76.32a13.09,13.09,0,0,1,1.54.31,3,3,0,0,1,1.39.69,1.84,1.84,0,0,1,.46,1.38,2,2,0,0,1-1,1.74,4.85,4.85,0,0,1-2.71.65,8.11,8.11,0,0,1-2.63-.48,7.8,7.8,0,0,1-2.47-1.36h-.13v2.35a14.42,14.42,0,0,0,2.47.84A12.18,12.18,0,0,0,362,408a7.58,7.58,0,0,0,2.43-.34,5.62,5.62,0,0,0,1.76-.95,3.77,3.77,0,0,0,1.08-1.36,3.84,3.84,0,0,0,.38-1.63,3.3,3.3,0,0,0-.79-2.36A4.94,4.94,0,0,0,364.45,400.13Z" transform="translate(-280.27 -312.32)"/><path class="cls-2" d="M633.54,401.39a4.9,4.9,0,0,0-2.36-1.26c-.52-.13-1.15-.26-1.9-.39s-1.32-.23-1.72-.32a3.06,3.06,0,0,1-1.6-.77,2,2,0,0,1-.46-1.38,1.9,1.9,0,0,1,.92-1.61,4.25,4.25,0,0,1,2.42-.62,8.25,8.25,0,0,1,2.69.45,6.36,6.36,0,0,1,2.11,1.13h.14V394.4a11.86,11.86,0,0,0-2.2-.7,11.7,11.7,0,0,0-2.74-.29,6.17,6.17,0,0,0-3.8,1.13,3.72,3.72,0,0,0-.59,5.42,5.15,5.15,0,0,0,2.78,1.35c.61.13,1.2.23,1.75.32a12.31,12.31,0,0,1,1.54.31,3,3,0,0,1,1.4.69,1.84,1.84,0,0,1,.46,1.38,2,2,0,0,1-1,1.74,4.87,4.87,0,0,1-2.71.65,8.11,8.11,0,0,1-2.63-.48,7.69,7.69,0,0,1-2.47-1.36h-.13v2.35a14.14,14.14,0,0,0,2.47.84,12.12,12.12,0,0,0,2.75.28,7.51,7.51,0,0,0,2.42-.34,5.56,5.56,0,0,0,1.77-.95,3.89,3.89,0,0,0,1.46-3A3.31,3.31,0,0,0,633.54,401.39Z" transform="translate(-280.27 -312.32)"/><path class="cls-2" d="M338.08,395.29a5.6,5.6,0,0,0-2.05-1.42,7.18,7.18,0,0,0-2.73-.5,7.45,7.45,0,0,0-2.7.49,5.42,5.42,0,0,0-2.06,1.43,6.41,6.41,0,0,0-1.33,2.34,10.74,10.74,0,0,0,0,6.22,6.58,6.58,0,0,0,1.32,2.3,5.61,5.61,0,0,0,2.07,1.43,7.09,7.09,0,0,0,2.7.49,7.25,7.25,0,0,0,2.72-.48,5.58,5.58,0,0,0,2.06-1.44,6.44,6.44,0,0,0,1.31-2.3,9.47,9.47,0,0,0,.47-3.12,9.66,9.66,0,0,0-.46-3.12A6.49,6.49,0,0,0,338.08,395.29ZM336.66,405a4.55,4.55,0,0,1-6.7,0,6.4,6.4,0,0,1-1.25-4.24,6.51,6.51,0,0,1,1.23-4.24,4.54,4.54,0,0,1,6.73,0,6.51,6.51,0,0,1,1.23,4.24A6.4,6.4,0,0,1,336.66,405Z" transform="translate(-280.27 -312.32)"/><polygon class="cls-2" points="71.59 92.87 65.49 81.34 62.59 81.34 62.59 95.46 64.33 95.46 64.33 82.83 71.03 95.46 73.34 95.46 73.34 81.34 71.59 81.34 71.59 92.87"/><path class="cls-2" d="M593.2,393.41a8,8,0,0,0-2.83.48,6,6,0,0,0-2.18,1.41,6.26,6.26,0,0,0-1.42,2.32,9.12,9.12,0,0,0-.49,3.12,9.3,9.3,0,0,0,.51,3.22,6.07,6.07,0,0,0,1.42,2.29,5.76,5.76,0,0,0,2.19,1.35,8.42,8.42,0,0,0,2.79.43,7.65,7.65,0,0,0,1.49-.13,10.59,10.59,0,0,0,1.26-.3,10.9,10.9,0,0,0,1.1-.42l1-.43v-2.19h-.14a7.41,7.41,0,0,1-2.21,1.38,6.9,6.9,0,0,1-2.54.46,5.39,5.39,0,0,1-1.88-.33,4.2,4.2,0,0,1-1.54-1,5,5,0,0,1-1-1.73,7.28,7.28,0,0,1-.4-2.56,7.87,7.87,0,0,1,.36-2.49,5.09,5.09,0,0,1,1-1.79,4.2,4.2,0,0,1,1.53-1.08,5.31,5.31,0,0,1,1.93-.34,6.83,6.83,0,0,1,2.45.44,8.21,8.21,0,0,1,2.31,1.41H598v-2.24a12.24,12.24,0,0,0-2.52-1A9.28,9.28,0,0,0,593.2,393.41Z" transform="translate(-280.27 -312.32)"/><path class="cls-2" d="M533.66,400.13c-.52-.13-1.15-.26-1.9-.39s-1.32-.23-1.72-.32a3.06,3.06,0,0,1-1.6-.77,2,2,0,0,1-.46-1.38,1.9,1.9,0,0,1,.92-1.61,4.25,4.25,0,0,1,2.42-.62,8.25,8.25,0,0,1,2.69.45,6.36,6.36,0,0,1,2.11,1.13h.14V394.4a11.86,11.86,0,0,0-2.2-.7,11.7,11.7,0,0,0-2.74-.29,6.17,6.17,0,0,0-3.8,1.13,3.72,3.72,0,0,0-.59,5.42,5.15,5.15,0,0,0,2.78,1.35c.61.13,1.2.23,1.75.32a12.31,12.31,0,0,1,1.54.31,3.06,3.06,0,0,1,1.4.69,1.84,1.84,0,0,1,.46,1.38,2,2,0,0,1-1,1.74,4.87,4.87,0,0,1-2.71.65,8.11,8.11,0,0,1-2.63-.48,7.69,7.69,0,0,1-2.47-1.36H526v2.35a14.14,14.14,0,0,0,2.47.84,12.12,12.12,0,0,0,2.75.28,7.51,7.51,0,0,0,2.42-.34,5.56,5.56,0,0,0,1.77-.95,4,4,0,0,0,1.46-3,3.31,3.31,0,0,0-.8-2.36A4.9,4.9,0,0,0,533.66,400.13Z" transform="translate(-280.27 -312.32)"/><polygon class="cls-2" points="290.15 93.75 285.73 81.34 283.72 81.34 288.86 95.46 291.37 95.46 296.5 81.34 294.58 81.34 290.15 93.75"/><path class="cls-2" d="M494.79,400.13c-.52-.13-1.15-.26-1.9-.39s-1.32-.23-1.72-.32a3,3,0,0,1-1.6-.77,2,2,0,0,1-.46-1.38,1.9,1.9,0,0,1,.92-1.61,4.25,4.25,0,0,1,2.42-.62,8.3,8.3,0,0,1,2.69.45,6.46,6.46,0,0,1,2.11,1.13h.13V394.4a11.39,11.39,0,0,0-2.2-.7,11.61,11.61,0,0,0-2.73-.29,6.15,6.15,0,0,0-3.8,1.13,3.51,3.51,0,0,0-1.5,2.91,3.54,3.54,0,0,0,.9,2.51,5.19,5.19,0,0,0,2.78,1.35c.62.13,1.21.23,1.76.32a12.69,12.69,0,0,1,1.54.31,3.06,3.06,0,0,1,1.4.69A1.88,1.88,0,0,1,496,404a2,2,0,0,1-1,1.74,4.83,4.83,0,0,1-2.7.65,8.07,8.07,0,0,1-2.63-.48,7.69,7.69,0,0,1-2.47-1.36h-.14v2.35a14.23,14.23,0,0,0,2.48.84,12.09,12.09,0,0,0,2.74.28,7.54,7.54,0,0,0,2.43-.34,5.78,5.78,0,0,0,1.77-.95,4,4,0,0,0,1.46-3,3.31,3.31,0,0,0-.8-2.36A5,5,0,0,0,494.79,400.13Z" transform="translate(-280.27 -312.32)"/><polygon class="cls-2" points="231.64 87.66 227.78 81.34 225.7 81.34 230.69 89.47 230.69 95.46 232.57 95.46 232.57 89.27 237.55 81.34 235.55 81.34 231.64 87.66"/><path class="cls-2" d="M560.64,400.06a4.18,4.18,0,0,0,.76-2.56,3.61,3.61,0,0,0-.43-1.86,3.5,3.5,0,0,0-1.2-1.22,4.48,4.48,0,0,0-1.53-.59,11.57,11.57,0,0,0-2.14-.17h-4v14.12H554v-5.61h2.65l4.72,5.61h2.44l-5.31-6.17A4.77,4.77,0,0,0,560.64,400.06Zm-4.72.54H554v-5.31h2.22a7.32,7.32,0,0,1,1.32.11,2.59,2.59,0,0,1,1,.39,1.82,1.82,0,0,1,.71.78,2.59,2.59,0,0,1,.21,1.07,3.72,3.72,0,0,1-.2,1.31,2.57,2.57,0,0,1-.63.91,2.49,2.49,0,0,1-1.13.58A7.13,7.13,0,0,1,555.92,400.6Z" transform="translate(-280.27 -312.32)"/><polygon class="cls-2" points="259.59 95.46 268.87 95.46 268.87 93.79 261.48 93.79 261.48 88.55 268.87 88.55 268.87 86.88 261.48 86.88 261.48 83.01 268.87 83.01 268.87 81.34 259.59 81.34 259.59 95.46"/><polygon class="cls-2" points="298.05 82.78 299.89 82.78 299.89 94.03 298.05 94.03 298.05 95.46 303.62 95.46 303.62 94.03 301.78 94.03 301.78 82.78 303.62 82.78 303.62 81.34 298.05 81.34 298.05 82.78"/><path class="cls-2" d="M456.14,395.29a5.63,5.63,0,0,0-2.06-1.42,7.09,7.09,0,0,0-2.72-.5,7.41,7.41,0,0,0-2.7.49,5.53,5.53,0,0,0-2.07,1.43,6.71,6.71,0,0,0-1.33,2.34,9.91,9.91,0,0,0-.45,3.1,9.66,9.66,0,0,0,.46,3.12,6.56,6.56,0,0,0,1.31,2.3,5.7,5.7,0,0,0,2.07,1.43,7.81,7.81,0,0,0,5.42,0,5.61,5.61,0,0,0,2.07-1.44,6.6,6.6,0,0,0,1.31-2.3,9.74,9.74,0,0,0,.47-3.12,9.94,9.94,0,0,0-.46-3.12A6.49,6.49,0,0,0,456.14,395.29ZM454.71,405a4.54,4.54,0,0,1-6.69,0,6.4,6.4,0,0,1-1.25-4.24,6.51,6.51,0,0,1,1.23-4.24,4.53,4.53,0,0,1,6.72,0,6.51,6.51,0,0,1,1.24,4.24A6.4,6.4,0,0,1,454.71,405Z" transform="translate(-280.27 -312.32)"/><polygon class="cls-2" points="319.78 82.78 321.62 82.78 321.62 94.03 319.78 94.03 319.78 95.46 325.35 95.46 325.35 94.03 323.5 94.03 323.5 82.78 325.35 82.78 325.35 81.34 319.78 81.34 319.78 82.78"/><polygon class="cls-2" points="156.58 82.78 158.43 82.78 158.43 94.03 156.58 94.03 156.58 95.46 162.15 95.46 162.15 94.03 160.31 94.03 160.31 82.78 162.15 82.78 162.15 81.34 156.58 81.34 156.58 82.78"/><path class="cls-2" d="M430,393.41a8,8,0,0,0-2.83.48A5.87,5.87,0,0,0,425,395.3a6.15,6.15,0,0,0-1.43,2.32,9.12,9.12,0,0,0-.49,3.12,9.3,9.3,0,0,0,.51,3.22,6.19,6.19,0,0,0,1.42,2.29,5.76,5.76,0,0,0,2.19,1.35A8.51,8.51,0,0,0,430,408a7.58,7.58,0,0,0,1.49-.13,9.73,9.73,0,0,0,1.26-.3,9.29,9.29,0,0,0,1.1-.42l1-.43v-2.19h-.13a7.46,7.46,0,0,1-2.22,1.38,6.9,6.9,0,0,1-2.54.46,5.34,5.34,0,0,1-1.87-.33,4.16,4.16,0,0,1-1.55-1,5.11,5.11,0,0,1-1-1.73,7.28,7.28,0,0,1-.4-2.56,7.59,7.59,0,0,1,.37-2.49,4.93,4.93,0,0,1,1-1.79,4.2,4.2,0,0,1,1.53-1.08,5.39,5.39,0,0,1,1.93-.34,6.92,6.92,0,0,1,2.46.44,8.5,8.5,0,0,1,2.31,1.41h.14v-2.24a11.82,11.82,0,0,0-2.52-1A9.22,9.22,0,0,0,430,393.41Z" transform="translate(-280.27 -312.32)"/><polygon class="cls-2" points="189.65 92.87 183.54 81.34 180.64 81.34 180.64 95.46 182.39 95.46 182.39 82.83 189.08 95.46 191.4 95.46 191.4 81.34 189.65 81.34 189.65 92.87"/><polygon class="cls-2" points="195.16 95.46 204.45 95.46 204.45 93.79 197.05 93.79 197.05 88.55 204.45 88.55 204.45 86.88 197.05 86.88 197.05 83.01 204.45 83.01 204.45 81.34 195.16 81.34 195.16 95.46"/><polygon class="cls-3" points="81.04 0.16 66.49 0 0 95.47 17.7 95.47 66.49 25.41 66.49 58.73 57.14 58.73 47.01 73.29 66.49 73.29 74.95 73.29 81.04 73.29 81.04 0.16"/></svg>